G04 EAGLE Gerber RS-274X export*
G75*
%MOMM*%
%FSLAX34Y34*%
%LPD*%
%INBottom Copper*%
%IPPOS*%
%AMOC8*
5,1,8,0,0,1.08239X$1,22.5*%
G01*
%ADD10P,1.649562X8X292.500000*%
%ADD11C,1.524000*%
%ADD12C,0.304800*%
%ADD13C,0.756400*%

G36*
X222905Y10172D02*
X222905Y10172D01*
X222977Y10174D01*
X223026Y10192D01*
X223077Y10200D01*
X223141Y10234D01*
X223208Y10259D01*
X223249Y10291D01*
X223295Y10316D01*
X223344Y10368D01*
X223400Y10412D01*
X223428Y10456D01*
X223464Y10494D01*
X223494Y10559D01*
X223533Y10619D01*
X223546Y10670D01*
X223568Y10717D01*
X223576Y10788D01*
X223593Y10858D01*
X223589Y10910D01*
X223595Y10961D01*
X223580Y11032D01*
X223574Y11103D01*
X223554Y11151D01*
X223543Y11202D01*
X223506Y11263D01*
X223478Y11329D01*
X223433Y11385D01*
X223416Y11413D01*
X223399Y11428D01*
X223373Y11460D01*
X220629Y14204D01*
X211859Y22974D01*
X211843Y22986D01*
X211830Y23002D01*
X211743Y23058D01*
X211659Y23118D01*
X211640Y23124D01*
X211623Y23135D01*
X211523Y23160D01*
X211424Y23190D01*
X211404Y23190D01*
X211385Y23195D01*
X211282Y23187D01*
X211178Y23184D01*
X211159Y23177D01*
X211140Y23175D01*
X211045Y23135D01*
X210947Y23099D01*
X210931Y23087D01*
X210913Y23079D01*
X210782Y22974D01*
X209243Y21435D01*
X205322Y19811D01*
X201078Y19811D01*
X197157Y21435D01*
X194155Y24437D01*
X192531Y28358D01*
X192531Y47842D01*
X194155Y51763D01*
X197157Y54765D01*
X201078Y56389D01*
X205322Y56389D01*
X209243Y54765D01*
X212245Y51763D01*
X213869Y47842D01*
X213869Y34213D01*
X213883Y34123D01*
X213891Y34032D01*
X213903Y34003D01*
X213908Y33971D01*
X213951Y33890D01*
X213987Y33806D01*
X214013Y33774D01*
X214024Y33753D01*
X214047Y33731D01*
X214092Y33675D01*
X216632Y31135D01*
X216690Y31093D01*
X216742Y31044D01*
X216789Y31022D01*
X216831Y30992D01*
X216900Y30970D01*
X216965Y30940D01*
X217017Y30935D01*
X217067Y30919D01*
X217138Y30921D01*
X217209Y30913D01*
X217260Y30924D01*
X217312Y30926D01*
X217380Y30950D01*
X217450Y30965D01*
X217495Y30992D01*
X217543Y31010D01*
X217599Y31055D01*
X217661Y31092D01*
X217695Y31131D01*
X217735Y31164D01*
X217774Y31224D01*
X217821Y31278D01*
X217840Y31327D01*
X217868Y31371D01*
X217886Y31440D01*
X217913Y31507D01*
X217921Y31578D01*
X217929Y31609D01*
X217927Y31632D01*
X217931Y31673D01*
X217931Y47842D01*
X219555Y51763D01*
X222557Y54765D01*
X226478Y56389D01*
X230722Y56389D01*
X234643Y54765D01*
X237645Y51763D01*
X239269Y47842D01*
X239269Y28358D01*
X237645Y24437D01*
X234955Y21747D01*
X234913Y21689D01*
X234864Y21637D01*
X234842Y21590D01*
X234812Y21548D01*
X234791Y21479D01*
X234760Y21414D01*
X234755Y21362D01*
X234739Y21312D01*
X234741Y21241D01*
X234733Y21170D01*
X234744Y21119D01*
X234746Y21067D01*
X234770Y20999D01*
X234785Y20929D01*
X234812Y20884D01*
X234830Y20836D01*
X234875Y20780D01*
X234912Y20718D01*
X234951Y20684D01*
X234984Y20644D01*
X235044Y20605D01*
X235099Y20558D01*
X235147Y20539D01*
X235191Y20511D01*
X235260Y20493D01*
X235327Y20466D01*
X235398Y20458D01*
X235429Y20450D01*
X235452Y20452D01*
X235493Y20448D01*
X247107Y20448D01*
X247177Y20459D01*
X247249Y20461D01*
X247298Y20479D01*
X247349Y20487D01*
X247413Y20521D01*
X247480Y20546D01*
X247521Y20578D01*
X247567Y20603D01*
X247616Y20655D01*
X247672Y20699D01*
X247700Y20743D01*
X247736Y20781D01*
X247766Y20846D01*
X247805Y20906D01*
X247818Y20957D01*
X247840Y21004D01*
X247848Y21075D01*
X247865Y21145D01*
X247861Y21197D01*
X247867Y21248D01*
X247852Y21319D01*
X247846Y21390D01*
X247826Y21438D01*
X247815Y21489D01*
X247778Y21550D01*
X247750Y21616D01*
X247705Y21672D01*
X247688Y21700D01*
X247671Y21715D01*
X247645Y21747D01*
X244955Y24437D01*
X243331Y28358D01*
X243331Y47842D01*
X244955Y51763D01*
X247957Y54765D01*
X248957Y55179D01*
X249057Y55241D01*
X249157Y55301D01*
X249161Y55305D01*
X249166Y55309D01*
X249241Y55399D01*
X249317Y55487D01*
X249319Y55493D01*
X249323Y55498D01*
X249365Y55607D01*
X249409Y55716D01*
X249410Y55723D01*
X249411Y55728D01*
X249412Y55746D01*
X249427Y55882D01*
X249427Y189219D01*
X252106Y191898D01*
X261469Y191898D01*
X261565Y191913D01*
X261662Y191923D01*
X261686Y191933D01*
X261712Y191937D01*
X261798Y191983D01*
X261887Y192023D01*
X261906Y192040D01*
X261930Y192053D01*
X261997Y192123D01*
X262068Y192189D01*
X262081Y192212D01*
X262099Y192231D01*
X262140Y192319D01*
X262187Y192405D01*
X262192Y192430D01*
X262203Y192454D01*
X262213Y192551D01*
X262231Y192647D01*
X262227Y192673D01*
X262230Y192698D01*
X262209Y192794D01*
X262195Y192890D01*
X262183Y192913D01*
X262177Y192939D01*
X262127Y193022D01*
X262083Y193109D01*
X262065Y193128D01*
X262051Y193150D01*
X261977Y193213D01*
X261908Y193281D01*
X261879Y193297D01*
X261864Y193310D01*
X261834Y193322D01*
X261761Y193362D01*
X259656Y194234D01*
X257734Y196156D01*
X256694Y198666D01*
X256694Y201384D01*
X257734Y203894D01*
X259656Y205816D01*
X262166Y206856D01*
X264884Y206856D01*
X267394Y205816D01*
X268389Y204821D01*
X268463Y204768D01*
X268533Y204708D01*
X268563Y204696D01*
X268589Y204677D01*
X268676Y204650D01*
X268761Y204616D01*
X268802Y204612D01*
X268824Y204605D01*
X268856Y204606D01*
X268928Y204598D01*
X459795Y204598D01*
X459885Y204612D01*
X459976Y204620D01*
X460005Y204632D01*
X460037Y204637D01*
X460118Y204680D01*
X460202Y204716D01*
X460234Y204742D01*
X460255Y204753D01*
X460277Y204776D01*
X460333Y204821D01*
X465981Y210469D01*
X474819Y210469D01*
X481069Y204219D01*
X481069Y195381D01*
X478885Y193197D01*
X478843Y193139D01*
X478794Y193087D01*
X478772Y193040D01*
X478742Y192998D01*
X478720Y192929D01*
X478690Y192864D01*
X478685Y192812D01*
X478669Y192762D01*
X478671Y192691D01*
X478663Y192620D01*
X478674Y192569D01*
X478676Y192517D01*
X478700Y192449D01*
X478715Y192379D01*
X478742Y192334D01*
X478760Y192286D01*
X478805Y192230D01*
X478842Y192168D01*
X478881Y192134D01*
X478914Y192094D01*
X478974Y192055D01*
X479029Y192008D01*
X479077Y191989D01*
X479121Y191961D01*
X479190Y191943D01*
X479257Y191916D01*
X479328Y191908D01*
X479359Y191900D01*
X479382Y191902D01*
X479423Y191898D01*
X483566Y191898D01*
X483656Y191912D01*
X483747Y191920D01*
X483776Y191932D01*
X483808Y191937D01*
X483889Y191980D01*
X483973Y192016D01*
X484005Y192042D01*
X484026Y192053D01*
X484048Y192076D01*
X484104Y192121D01*
X485709Y193726D01*
X485721Y193742D01*
X485737Y193755D01*
X485793Y193842D01*
X485853Y193926D01*
X485859Y193945D01*
X485870Y193962D01*
X485895Y194062D01*
X485925Y194161D01*
X485925Y194181D01*
X485930Y194200D01*
X485922Y194303D01*
X485919Y194407D01*
X485912Y194426D01*
X485911Y194445D01*
X485870Y194540D01*
X485834Y194638D01*
X485822Y194654D01*
X485814Y194672D01*
X485709Y194803D01*
X485131Y195381D01*
X485131Y204219D01*
X487765Y206853D01*
X487807Y206911D01*
X487856Y206963D01*
X487878Y207010D01*
X487908Y207052D01*
X487930Y207121D01*
X487960Y207186D01*
X487965Y207238D01*
X487981Y207288D01*
X487979Y207359D01*
X487987Y207430D01*
X487976Y207481D01*
X487974Y207533D01*
X487950Y207601D01*
X487935Y207671D01*
X487908Y207716D01*
X487890Y207764D01*
X487845Y207820D01*
X487808Y207882D01*
X487769Y207916D01*
X487736Y207956D01*
X487676Y207995D01*
X487621Y208042D01*
X487573Y208061D01*
X487529Y208089D01*
X487460Y208107D01*
X487393Y208134D01*
X487322Y208142D01*
X487291Y208150D01*
X487268Y208148D01*
X487227Y208152D01*
X480706Y208152D01*
X478027Y210831D01*
X478027Y215902D01*
X478016Y215972D01*
X478014Y216044D01*
X477996Y216093D01*
X477988Y216144D01*
X477954Y216208D01*
X477929Y216275D01*
X477897Y216316D01*
X477872Y216362D01*
X477820Y216411D01*
X477776Y216467D01*
X477732Y216495D01*
X477694Y216531D01*
X477629Y216561D01*
X477569Y216600D01*
X477518Y216613D01*
X477471Y216635D01*
X477400Y216643D01*
X477330Y216660D01*
X477278Y216656D01*
X477227Y216662D01*
X477156Y216647D01*
X477085Y216641D01*
X477037Y216621D01*
X476986Y216610D01*
X476925Y216573D01*
X476859Y216545D01*
X476803Y216500D01*
X476775Y216483D01*
X476760Y216466D01*
X476728Y216440D01*
X474819Y214531D01*
X465981Y214531D01*
X459883Y220629D01*
X459809Y220682D01*
X459739Y220742D01*
X459709Y220754D01*
X459683Y220773D01*
X459596Y220800D01*
X459511Y220834D01*
X459470Y220838D01*
X459448Y220845D01*
X459416Y220844D01*
X459345Y220852D01*
X444632Y220852D01*
X444586Y220845D01*
X444540Y220847D01*
X444466Y220825D01*
X444389Y220813D01*
X444348Y220791D01*
X444304Y220778D01*
X444240Y220734D01*
X444171Y220697D01*
X444140Y220664D01*
X444102Y220638D01*
X444056Y220575D01*
X444002Y220519D01*
X443983Y220477D01*
X443955Y220441D01*
X443931Y220367D01*
X443898Y220296D01*
X443893Y220250D01*
X443879Y220207D01*
X443880Y220129D01*
X443871Y220052D01*
X443881Y220007D01*
X443881Y219961D01*
X443920Y219829D01*
X443924Y219811D01*
X443926Y219807D01*
X443928Y219800D01*
X444981Y217259D01*
X444981Y214541D01*
X443941Y212031D01*
X442019Y210109D01*
X439509Y209069D01*
X436791Y209069D01*
X434281Y210109D01*
X433286Y211104D01*
X433212Y211157D01*
X433142Y211217D01*
X433112Y211229D01*
X433086Y211248D01*
X432999Y211275D01*
X432914Y211309D01*
X432873Y211313D01*
X432851Y211320D01*
X432819Y211319D01*
X432747Y211327D01*
X169556Y211327D01*
X166654Y214229D01*
X109084Y271799D01*
X109068Y271811D01*
X109055Y271827D01*
X108968Y271883D01*
X108884Y271943D01*
X108865Y271949D01*
X108848Y271960D01*
X108748Y271985D01*
X108649Y272015D01*
X108629Y272015D01*
X108610Y272020D01*
X108507Y272012D01*
X108403Y272009D01*
X108384Y272002D01*
X108365Y272000D01*
X108270Y271960D01*
X108172Y271924D01*
X108156Y271912D01*
X108138Y271904D01*
X108007Y271799D01*
X107643Y271435D01*
X103722Y269811D01*
X99478Y269811D01*
X95557Y271435D01*
X92555Y274437D01*
X90931Y278358D01*
X90931Y297842D01*
X92555Y301763D01*
X95557Y304765D01*
X99478Y306389D01*
X103722Y306389D01*
X107643Y304765D01*
X110645Y301763D01*
X112269Y297842D01*
X112269Y281863D01*
X112283Y281773D01*
X112291Y281682D01*
X112303Y281653D01*
X112308Y281621D01*
X112351Y281540D01*
X112387Y281456D01*
X112413Y281424D01*
X112424Y281403D01*
X112447Y281381D01*
X112492Y281325D01*
X115032Y278785D01*
X115090Y278743D01*
X115142Y278694D01*
X115189Y278672D01*
X115231Y278642D01*
X115300Y278620D01*
X115365Y278590D01*
X115417Y278585D01*
X115467Y278569D01*
X115538Y278571D01*
X115609Y278563D01*
X115660Y278574D01*
X115712Y278576D01*
X115780Y278600D01*
X115850Y278615D01*
X115895Y278642D01*
X115943Y278660D01*
X115999Y278705D01*
X116061Y278742D01*
X116095Y278781D01*
X116135Y278814D01*
X116174Y278874D01*
X116221Y278928D01*
X116240Y278977D01*
X116268Y279021D01*
X116286Y279090D01*
X116313Y279157D01*
X116321Y279228D01*
X116329Y279259D01*
X116327Y279282D01*
X116331Y279323D01*
X116331Y297842D01*
X117955Y301763D01*
X120957Y304765D01*
X124878Y306389D01*
X129122Y306389D01*
X133043Y304765D01*
X136045Y301763D01*
X137669Y297842D01*
X137669Y278358D01*
X136045Y274437D01*
X133043Y271435D01*
X129122Y269811D01*
X125843Y269811D01*
X125773Y269800D01*
X125701Y269798D01*
X125652Y269780D01*
X125601Y269772D01*
X125537Y269738D01*
X125470Y269713D01*
X125429Y269681D01*
X125383Y269656D01*
X125334Y269604D01*
X125278Y269560D01*
X125250Y269516D01*
X125214Y269478D01*
X125184Y269413D01*
X125145Y269353D01*
X125132Y269302D01*
X125110Y269255D01*
X125102Y269184D01*
X125085Y269114D01*
X125089Y269062D01*
X125083Y269011D01*
X125098Y268940D01*
X125104Y268869D01*
X125124Y268821D01*
X125135Y268770D01*
X125172Y268709D01*
X125200Y268643D01*
X125245Y268587D01*
X125262Y268559D01*
X125279Y268544D01*
X125305Y268512D01*
X173121Y220696D01*
X173195Y220643D01*
X173265Y220583D01*
X173295Y220571D01*
X173321Y220552D01*
X173408Y220525D01*
X173493Y220491D01*
X173534Y220487D01*
X173556Y220480D01*
X173588Y220481D01*
X173659Y220473D01*
X209373Y220473D01*
X209443Y220484D01*
X209515Y220486D01*
X209564Y220504D01*
X209615Y220512D01*
X209679Y220546D01*
X209746Y220571D01*
X209787Y220603D01*
X209833Y220628D01*
X209882Y220680D01*
X209938Y220724D01*
X209966Y220768D01*
X210002Y220806D01*
X210032Y220871D01*
X210071Y220931D01*
X210084Y220982D01*
X210106Y221029D01*
X210114Y221100D01*
X210131Y221170D01*
X210127Y221222D01*
X210133Y221273D01*
X210118Y221344D01*
X210112Y221415D01*
X210092Y221463D01*
X210081Y221514D01*
X210044Y221575D01*
X210016Y221641D01*
X209971Y221697D01*
X209954Y221725D01*
X209937Y221740D01*
X209911Y221772D01*
X207929Y223754D01*
X159884Y271799D01*
X159868Y271811D01*
X159855Y271827D01*
X159768Y271883D01*
X159684Y271943D01*
X159665Y271949D01*
X159648Y271960D01*
X159548Y271985D01*
X159449Y272015D01*
X159429Y272015D01*
X159410Y272020D01*
X159307Y272012D01*
X159203Y272009D01*
X159184Y272002D01*
X159165Y272000D01*
X159070Y271960D01*
X158972Y271924D01*
X158956Y271912D01*
X158938Y271904D01*
X158807Y271799D01*
X158443Y271435D01*
X154522Y269811D01*
X150278Y269811D01*
X146357Y271435D01*
X143355Y274437D01*
X141731Y278358D01*
X141731Y297842D01*
X143355Y301763D01*
X146357Y304765D01*
X150278Y306389D01*
X154522Y306389D01*
X158443Y304765D01*
X161445Y301763D01*
X163069Y297842D01*
X163069Y281863D01*
X163083Y281773D01*
X163091Y281682D01*
X163103Y281653D01*
X163108Y281621D01*
X163151Y281540D01*
X163187Y281456D01*
X163213Y281424D01*
X163224Y281403D01*
X163247Y281381D01*
X163292Y281325D01*
X165832Y278785D01*
X165890Y278743D01*
X165942Y278694D01*
X165989Y278672D01*
X166031Y278642D01*
X166100Y278620D01*
X166165Y278590D01*
X166217Y278585D01*
X166267Y278569D01*
X166338Y278571D01*
X166409Y278563D01*
X166460Y278574D01*
X166512Y278576D01*
X166580Y278600D01*
X166650Y278615D01*
X166695Y278642D01*
X166743Y278660D01*
X166799Y278705D01*
X166861Y278742D01*
X166895Y278781D01*
X166935Y278814D01*
X166974Y278874D01*
X167021Y278928D01*
X167040Y278977D01*
X167068Y279021D01*
X167086Y279090D01*
X167113Y279157D01*
X167121Y279228D01*
X167129Y279259D01*
X167127Y279282D01*
X167131Y279323D01*
X167131Y297842D01*
X168755Y301763D01*
X171757Y304765D01*
X175678Y306389D01*
X179922Y306389D01*
X183843Y304765D01*
X186845Y301763D01*
X188469Y297842D01*
X188469Y278358D01*
X186845Y274437D01*
X183843Y271435D01*
X179922Y269811D01*
X176643Y269811D01*
X176573Y269800D01*
X176501Y269798D01*
X176452Y269780D01*
X176401Y269772D01*
X176337Y269738D01*
X176270Y269713D01*
X176229Y269681D01*
X176183Y269656D01*
X176134Y269604D01*
X176078Y269560D01*
X176050Y269516D01*
X176014Y269478D01*
X175984Y269413D01*
X175945Y269353D01*
X175932Y269302D01*
X175910Y269255D01*
X175902Y269184D01*
X175885Y269114D01*
X175889Y269062D01*
X175883Y269011D01*
X175898Y268940D01*
X175904Y268869D01*
X175924Y268821D01*
X175935Y268770D01*
X175972Y268709D01*
X176000Y268643D01*
X176045Y268587D01*
X176062Y268559D01*
X176079Y268544D01*
X176105Y268512D01*
X214396Y230221D01*
X214470Y230168D01*
X214540Y230108D01*
X214570Y230096D01*
X214596Y230077D01*
X214683Y230050D01*
X214768Y230016D01*
X214809Y230012D01*
X214831Y230005D01*
X214863Y230006D01*
X214934Y229998D01*
X459795Y229998D01*
X459885Y230012D01*
X459976Y230020D01*
X460005Y230032D01*
X460037Y230037D01*
X460118Y230080D01*
X460202Y230116D01*
X460234Y230142D01*
X460255Y230153D01*
X460277Y230176D01*
X460333Y230221D01*
X465981Y235869D01*
X474819Y235869D01*
X476728Y233960D01*
X476786Y233918D01*
X476838Y233869D01*
X476885Y233847D01*
X476927Y233817D01*
X476996Y233795D01*
X477061Y233765D01*
X477113Y233760D01*
X477163Y233744D01*
X477234Y233746D01*
X477305Y233738D01*
X477356Y233749D01*
X477408Y233751D01*
X477476Y233775D01*
X477546Y233790D01*
X477591Y233817D01*
X477639Y233835D01*
X477695Y233880D01*
X477757Y233917D01*
X477791Y233956D01*
X477831Y233989D01*
X477870Y234049D01*
X477917Y234104D01*
X477936Y234152D01*
X477964Y234196D01*
X477982Y234265D01*
X478009Y234332D01*
X478017Y234403D01*
X478025Y234434D01*
X478023Y234457D01*
X478027Y234498D01*
X478027Y241302D01*
X478016Y241372D01*
X478014Y241444D01*
X477996Y241493D01*
X477988Y241544D01*
X477954Y241608D01*
X477929Y241675D01*
X477897Y241716D01*
X477872Y241762D01*
X477820Y241811D01*
X477776Y241867D01*
X477732Y241895D01*
X477694Y241931D01*
X477629Y241961D01*
X477569Y242000D01*
X477518Y242013D01*
X477471Y242035D01*
X477400Y242043D01*
X477330Y242060D01*
X477278Y242056D01*
X477227Y242062D01*
X477156Y242047D01*
X477085Y242041D01*
X477037Y242021D01*
X476986Y242010D01*
X476925Y241973D01*
X476859Y241945D01*
X476803Y241900D01*
X476775Y241883D01*
X476760Y241866D01*
X476728Y241840D01*
X474819Y239931D01*
X465981Y239931D01*
X459731Y246181D01*
X459731Y255019D01*
X462365Y257653D01*
X462407Y257711D01*
X462456Y257763D01*
X462478Y257810D01*
X462508Y257852D01*
X462530Y257921D01*
X462560Y257986D01*
X462565Y258038D01*
X462581Y258088D01*
X462579Y258159D01*
X462587Y258230D01*
X462576Y258281D01*
X462574Y258333D01*
X462550Y258401D01*
X462535Y258471D01*
X462508Y258516D01*
X462490Y258564D01*
X462445Y258620D01*
X462408Y258682D01*
X462369Y258716D01*
X462336Y258756D01*
X462276Y258795D01*
X462221Y258842D01*
X462173Y258861D01*
X462129Y258889D01*
X462060Y258907D01*
X461993Y258934D01*
X461922Y258942D01*
X461891Y258950D01*
X461868Y258948D01*
X461827Y258952D01*
X274331Y258952D01*
X261484Y271799D01*
X261468Y271811D01*
X261455Y271827D01*
X261368Y271883D01*
X261284Y271943D01*
X261265Y271949D01*
X261248Y271960D01*
X261148Y271985D01*
X261049Y272015D01*
X261029Y272015D01*
X261010Y272020D01*
X260907Y272012D01*
X260803Y272009D01*
X260784Y272002D01*
X260764Y272000D01*
X260670Y271960D01*
X260572Y271924D01*
X260556Y271912D01*
X260538Y271904D01*
X260407Y271799D01*
X260043Y271435D01*
X256122Y269811D01*
X251878Y269811D01*
X247957Y271435D01*
X244955Y274437D01*
X243331Y278358D01*
X243331Y297842D01*
X244955Y301763D01*
X247957Y304765D01*
X251878Y306389D01*
X256122Y306389D01*
X260043Y304765D01*
X263045Y301763D01*
X264669Y297842D01*
X264669Y281863D01*
X264683Y281773D01*
X264691Y281682D01*
X264703Y281653D01*
X264708Y281621D01*
X264751Y281540D01*
X264787Y281456D01*
X264813Y281424D01*
X264824Y281403D01*
X264847Y281381D01*
X264892Y281325D01*
X267432Y278785D01*
X267490Y278743D01*
X267542Y278694D01*
X267589Y278672D01*
X267631Y278642D01*
X267700Y278620D01*
X267765Y278590D01*
X267817Y278585D01*
X267867Y278569D01*
X267938Y278571D01*
X268009Y278563D01*
X268060Y278574D01*
X268112Y278576D01*
X268180Y278600D01*
X268250Y278615D01*
X268295Y278642D01*
X268343Y278660D01*
X268399Y278705D01*
X268461Y278742D01*
X268495Y278781D01*
X268535Y278814D01*
X268574Y278874D01*
X268621Y278928D01*
X268640Y278977D01*
X268668Y279021D01*
X268686Y279090D01*
X268713Y279157D01*
X268721Y279228D01*
X268729Y279259D01*
X268727Y279282D01*
X268731Y279323D01*
X268731Y297842D01*
X270355Y301763D01*
X273357Y304765D01*
X277278Y306389D01*
X281522Y306389D01*
X285443Y304765D01*
X288445Y301763D01*
X290069Y297842D01*
X290069Y278358D01*
X288445Y274437D01*
X285443Y271435D01*
X281522Y269811D01*
X278243Y269811D01*
X278173Y269800D01*
X278101Y269798D01*
X278052Y269780D01*
X278001Y269772D01*
X277937Y269738D01*
X277870Y269713D01*
X277829Y269681D01*
X277783Y269656D01*
X277734Y269604D01*
X277678Y269560D01*
X277650Y269516D01*
X277614Y269478D01*
X277584Y269413D01*
X277545Y269353D01*
X277532Y269302D01*
X277510Y269255D01*
X277502Y269184D01*
X277485Y269114D01*
X277489Y269062D01*
X277483Y269011D01*
X277498Y268940D01*
X277504Y268869D01*
X277524Y268821D01*
X277535Y268770D01*
X277572Y268709D01*
X277600Y268643D01*
X277645Y268587D01*
X277662Y268559D01*
X277679Y268544D01*
X277705Y268512D01*
X277896Y268321D01*
X277970Y268267D01*
X278040Y268208D01*
X278070Y268196D01*
X278096Y268177D01*
X278183Y268150D01*
X278268Y268116D01*
X278309Y268112D01*
X278331Y268105D01*
X278363Y268106D01*
X278434Y268098D01*
X461377Y268098D01*
X461447Y268109D01*
X461519Y268111D01*
X461568Y268129D01*
X461619Y268137D01*
X461683Y268171D01*
X461750Y268196D01*
X461791Y268228D01*
X461837Y268253D01*
X461886Y268305D01*
X461942Y268349D01*
X461970Y268393D01*
X462006Y268431D01*
X462036Y268496D01*
X462075Y268556D01*
X462088Y268607D01*
X462110Y268654D01*
X462118Y268725D01*
X462135Y268795D01*
X462131Y268847D01*
X462137Y268898D01*
X462122Y268969D01*
X462116Y269040D01*
X462096Y269088D01*
X462085Y269139D01*
X462048Y269200D01*
X462020Y269266D01*
X461975Y269322D01*
X461958Y269350D01*
X461941Y269365D01*
X461915Y269397D01*
X459731Y271581D01*
X459731Y280419D01*
X465981Y286669D01*
X474819Y286669D01*
X481069Y280419D01*
X481069Y271581D01*
X478403Y268915D01*
X478391Y268899D01*
X478376Y268887D01*
X478320Y268799D01*
X478260Y268716D01*
X478254Y268697D01*
X478243Y268680D01*
X478218Y268579D01*
X478187Y268480D01*
X478188Y268461D01*
X478183Y268441D01*
X478191Y268338D01*
X478194Y268235D01*
X478200Y268216D01*
X478202Y268196D01*
X478242Y268101D01*
X478278Y268004D01*
X478291Y267988D01*
X478298Y267970D01*
X478403Y267839D01*
X484271Y261971D01*
X487173Y259069D01*
X487173Y258898D01*
X487184Y258828D01*
X487186Y258756D01*
X487204Y258707D01*
X487212Y258656D01*
X487246Y258592D01*
X487271Y258525D01*
X487303Y258484D01*
X487328Y258438D01*
X487380Y258389D01*
X487424Y258333D01*
X487468Y258305D01*
X487506Y258269D01*
X487571Y258239D01*
X487631Y258200D01*
X487682Y258187D01*
X487729Y258165D01*
X487800Y258157D01*
X487870Y258140D01*
X487922Y258144D01*
X487973Y258138D01*
X488044Y258153D01*
X488115Y258159D01*
X488163Y258179D01*
X488214Y258190D01*
X488275Y258227D01*
X488341Y258255D01*
X488397Y258300D01*
X488425Y258317D01*
X488440Y258334D01*
X488472Y258360D01*
X491381Y261269D01*
X500219Y261269D01*
X506469Y255019D01*
X506469Y246181D01*
X500219Y239931D01*
X491381Y239931D01*
X488472Y242840D01*
X488414Y242882D01*
X488362Y242931D01*
X488315Y242953D01*
X488273Y242983D01*
X488204Y243005D01*
X488139Y243035D01*
X488087Y243040D01*
X488037Y243056D01*
X487966Y243054D01*
X487895Y243062D01*
X487844Y243051D01*
X487792Y243049D01*
X487724Y243025D01*
X487654Y243010D01*
X487609Y242983D01*
X487561Y242965D01*
X487505Y242920D01*
X487443Y242883D01*
X487409Y242844D01*
X487369Y242811D01*
X487330Y242751D01*
X487283Y242696D01*
X487264Y242648D01*
X487236Y242604D01*
X487218Y242535D01*
X487191Y242468D01*
X487183Y242397D01*
X487175Y242366D01*
X487177Y242343D01*
X487173Y242302D01*
X487173Y233498D01*
X487184Y233428D01*
X487186Y233356D01*
X487204Y233307D01*
X487212Y233256D01*
X487246Y233192D01*
X487271Y233125D01*
X487303Y233084D01*
X487328Y233038D01*
X487380Y232989D01*
X487424Y232933D01*
X487468Y232905D01*
X487506Y232869D01*
X487571Y232839D01*
X487631Y232800D01*
X487682Y232787D01*
X487729Y232765D01*
X487800Y232757D01*
X487870Y232740D01*
X487922Y232744D01*
X487973Y232738D01*
X488044Y232753D01*
X488115Y232759D01*
X488163Y232779D01*
X488214Y232790D01*
X488275Y232827D01*
X488341Y232855D01*
X488397Y232900D01*
X488425Y232917D01*
X488440Y232934D01*
X488472Y232960D01*
X491381Y235869D01*
X500219Y235869D01*
X506469Y229619D01*
X506469Y227584D01*
X506472Y227564D01*
X506470Y227545D01*
X506492Y227443D01*
X506508Y227341D01*
X506518Y227324D01*
X506522Y227304D01*
X506575Y227215D01*
X506624Y227124D01*
X506638Y227110D01*
X506648Y227093D01*
X506727Y227026D01*
X506802Y226954D01*
X506820Y226946D01*
X506835Y226933D01*
X506931Y226894D01*
X507025Y226851D01*
X507045Y226849D01*
X507063Y226841D01*
X507230Y226823D01*
X516244Y226823D01*
X518923Y224144D01*
X518923Y45731D01*
X516021Y42829D01*
X484652Y11460D01*
X484610Y11402D01*
X484561Y11350D01*
X484539Y11303D01*
X484509Y11261D01*
X484487Y11192D01*
X484457Y11127D01*
X484451Y11075D01*
X484436Y11025D01*
X484438Y10954D01*
X484430Y10883D01*
X484441Y10832D01*
X484443Y10780D01*
X484467Y10712D01*
X484482Y10642D01*
X484509Y10597D01*
X484527Y10549D01*
X484572Y10493D01*
X484609Y10431D01*
X484648Y10397D01*
X484681Y10357D01*
X484741Y10318D01*
X484795Y10271D01*
X484844Y10252D01*
X484888Y10224D01*
X484957Y10206D01*
X485024Y10179D01*
X485095Y10171D01*
X485126Y10163D01*
X485149Y10165D01*
X485190Y10161D01*
X521378Y10161D01*
X521398Y10164D01*
X521417Y10162D01*
X521519Y10184D01*
X521621Y10200D01*
X521638Y10210D01*
X521658Y10214D01*
X521747Y10267D01*
X521838Y10316D01*
X521852Y10330D01*
X521869Y10340D01*
X521936Y10419D01*
X522008Y10494D01*
X522016Y10512D01*
X522029Y10527D01*
X522068Y10623D01*
X522111Y10717D01*
X522113Y10737D01*
X522121Y10755D01*
X522139Y10922D01*
X522139Y308622D01*
X522125Y308712D01*
X522117Y308803D01*
X522105Y308833D01*
X522100Y308865D01*
X522057Y308945D01*
X522021Y309029D01*
X521995Y309061D01*
X521984Y309082D01*
X521961Y309104D01*
X521916Y309160D01*
X516560Y314516D01*
X516486Y314569D01*
X516417Y314629D01*
X516387Y314641D01*
X516361Y314660D01*
X516274Y314687D01*
X516189Y314721D01*
X516148Y314725D01*
X516125Y314732D01*
X516093Y314731D01*
X516022Y314739D01*
X13978Y314739D01*
X13888Y314725D01*
X13797Y314717D01*
X13767Y314705D01*
X13735Y314700D01*
X13655Y314657D01*
X13571Y314621D01*
X13539Y314595D01*
X13518Y314584D01*
X13496Y314561D01*
X13440Y314516D01*
X10384Y311460D01*
X10331Y311386D01*
X10271Y311317D01*
X10259Y311287D01*
X10240Y311261D01*
X10213Y311174D01*
X10179Y311089D01*
X10175Y311048D01*
X10168Y311025D01*
X10169Y310993D01*
X10161Y310922D01*
X10161Y10922D01*
X10164Y10902D01*
X10162Y10883D01*
X10184Y10781D01*
X10200Y10679D01*
X10210Y10662D01*
X10214Y10642D01*
X10267Y10553D01*
X10316Y10462D01*
X10330Y10448D01*
X10340Y10431D01*
X10419Y10364D01*
X10494Y10292D01*
X10512Y10284D01*
X10527Y10271D01*
X10623Y10232D01*
X10717Y10189D01*
X10737Y10187D01*
X10755Y10179D01*
X10922Y10161D01*
X222835Y10161D01*
X222905Y10172D01*
G37*
%LPC*%
G36*
X302678Y269811D02*
X302678Y269811D01*
X298757Y271435D01*
X295755Y274437D01*
X294131Y278358D01*
X294131Y297842D01*
X295755Y301763D01*
X298757Y304765D01*
X302678Y306389D01*
X306922Y306389D01*
X310843Y304765D01*
X313845Y301763D01*
X315469Y297842D01*
X315469Y278358D01*
X313845Y274437D01*
X310843Y271435D01*
X306922Y269811D01*
X302678Y269811D01*
G37*
%LPD*%
%LPC*%
G36*
X226478Y269811D02*
X226478Y269811D01*
X222557Y271435D01*
X219555Y274437D01*
X217931Y278358D01*
X217931Y297842D01*
X219555Y301763D01*
X222557Y304765D01*
X226478Y306389D01*
X230722Y306389D01*
X234643Y304765D01*
X237645Y301763D01*
X239269Y297842D01*
X239269Y278358D01*
X237645Y274437D01*
X234643Y271435D01*
X230722Y269811D01*
X226478Y269811D01*
G37*
%LPD*%
%LPC*%
G36*
X328078Y269811D02*
X328078Y269811D01*
X324157Y271435D01*
X321155Y274437D01*
X319531Y278358D01*
X319531Y297842D01*
X321155Y301763D01*
X324157Y304765D01*
X328078Y306389D01*
X332322Y306389D01*
X336243Y304765D01*
X339245Y301763D01*
X340869Y297842D01*
X340869Y278358D01*
X339245Y274437D01*
X336243Y271435D01*
X332322Y269811D01*
X328078Y269811D01*
G37*
%LPD*%
%LPC*%
G36*
X353478Y269811D02*
X353478Y269811D01*
X349557Y271435D01*
X346555Y274437D01*
X344931Y278358D01*
X344931Y297842D01*
X346555Y301763D01*
X349557Y304765D01*
X353478Y306389D01*
X357722Y306389D01*
X361643Y304765D01*
X364645Y301763D01*
X366269Y297842D01*
X366269Y278358D01*
X364645Y274437D01*
X361643Y271435D01*
X357722Y269811D01*
X353478Y269811D01*
G37*
%LPD*%
%LPC*%
G36*
X201078Y269811D02*
X201078Y269811D01*
X197157Y271435D01*
X194155Y274437D01*
X192531Y278358D01*
X192531Y297842D01*
X194155Y301763D01*
X197157Y304765D01*
X201078Y306389D01*
X205322Y306389D01*
X209243Y304765D01*
X212245Y301763D01*
X213869Y297842D01*
X213869Y278358D01*
X212245Y274437D01*
X209243Y271435D01*
X205322Y269811D01*
X201078Y269811D01*
G37*
%LPD*%
%LPC*%
G36*
X48678Y269811D02*
X48678Y269811D01*
X44757Y271435D01*
X41755Y274437D01*
X40131Y278358D01*
X40131Y297842D01*
X41755Y301763D01*
X44757Y304765D01*
X48678Y306389D01*
X52922Y306389D01*
X56843Y304765D01*
X59845Y301763D01*
X61469Y297842D01*
X61469Y278358D01*
X59845Y274437D01*
X56843Y271435D01*
X52922Y269811D01*
X48678Y269811D01*
G37*
%LPD*%
%LPC*%
G36*
X378878Y269811D02*
X378878Y269811D01*
X374957Y271435D01*
X371955Y274437D01*
X370331Y278358D01*
X370331Y297842D01*
X371955Y301763D01*
X374957Y304765D01*
X378878Y306389D01*
X383122Y306389D01*
X387043Y304765D01*
X390045Y301763D01*
X391669Y297842D01*
X391669Y278358D01*
X390045Y274437D01*
X387043Y271435D01*
X383122Y269811D01*
X378878Y269811D01*
G37*
%LPD*%
%LPC*%
G36*
X404278Y269811D02*
X404278Y269811D01*
X400357Y271435D01*
X397355Y274437D01*
X395731Y278358D01*
X395731Y297842D01*
X397355Y301763D01*
X400357Y304765D01*
X404278Y306389D01*
X408522Y306389D01*
X412443Y304765D01*
X415445Y301763D01*
X417069Y297842D01*
X417069Y278358D01*
X415445Y274437D01*
X412443Y271435D01*
X408522Y269811D01*
X404278Y269811D01*
G37*
%LPD*%
%LPC*%
G36*
X175678Y19811D02*
X175678Y19811D01*
X171757Y21435D01*
X168755Y24437D01*
X167131Y28358D01*
X167131Y47842D01*
X168755Y51763D01*
X171757Y54765D01*
X175678Y56389D01*
X179922Y56389D01*
X183843Y54765D01*
X186845Y51763D01*
X188469Y47842D01*
X188469Y28358D01*
X186845Y24437D01*
X183843Y21435D01*
X179922Y19811D01*
X175678Y19811D01*
G37*
%LPD*%
%LPC*%
G36*
X150278Y19811D02*
X150278Y19811D01*
X146357Y21435D01*
X143355Y24437D01*
X141731Y28358D01*
X141731Y47842D01*
X143355Y51763D01*
X146357Y54765D01*
X150278Y56389D01*
X154522Y56389D01*
X158443Y54765D01*
X161445Y51763D01*
X163069Y47842D01*
X163069Y28358D01*
X161445Y24437D01*
X158443Y21435D01*
X154522Y19811D01*
X150278Y19811D01*
G37*
%LPD*%
%LPC*%
G36*
X124878Y19811D02*
X124878Y19811D01*
X120957Y21435D01*
X117955Y24437D01*
X116331Y28358D01*
X116331Y47842D01*
X117955Y51763D01*
X120957Y54765D01*
X124878Y56389D01*
X129122Y56389D01*
X133043Y54765D01*
X136045Y51763D01*
X137669Y47842D01*
X137669Y28358D01*
X136045Y24437D01*
X133043Y21435D01*
X129122Y19811D01*
X124878Y19811D01*
G37*
%LPD*%
%LPC*%
G36*
X99478Y19811D02*
X99478Y19811D01*
X95557Y21435D01*
X92555Y24437D01*
X90931Y28358D01*
X90931Y47842D01*
X92555Y51763D01*
X95557Y54765D01*
X99478Y56389D01*
X103722Y56389D01*
X107643Y54765D01*
X110645Y51763D01*
X112269Y47842D01*
X112269Y28358D01*
X110645Y24437D01*
X107643Y21435D01*
X103722Y19811D01*
X99478Y19811D01*
G37*
%LPD*%
%LPC*%
G36*
X48678Y19811D02*
X48678Y19811D01*
X44757Y21435D01*
X41755Y24437D01*
X40131Y28358D01*
X40131Y47842D01*
X41755Y51763D01*
X44757Y54765D01*
X48678Y56389D01*
X52922Y56389D01*
X56843Y54765D01*
X59845Y51763D01*
X61469Y47842D01*
X61469Y28358D01*
X59845Y24437D01*
X56843Y21435D01*
X52922Y19811D01*
X48678Y19811D01*
G37*
%LPD*%
%LPC*%
G36*
X77723Y289623D02*
X77723Y289623D01*
X77723Y305766D01*
X78579Y305631D01*
X80100Y305136D01*
X81525Y304410D01*
X82819Y303470D01*
X83950Y302339D01*
X84890Y301045D01*
X85616Y299620D01*
X86111Y298099D01*
X86361Y296520D01*
X86361Y289623D01*
X77723Y289623D01*
G37*
%LPD*%
%LPC*%
G36*
X77723Y39623D02*
X77723Y39623D01*
X77723Y55766D01*
X78579Y55631D01*
X80100Y55136D01*
X81525Y54410D01*
X82819Y53470D01*
X83950Y52339D01*
X84890Y51045D01*
X85616Y49620D01*
X86111Y48099D01*
X86361Y46520D01*
X86361Y39623D01*
X77723Y39623D01*
G37*
%LPD*%
%LPC*%
G36*
X77723Y286577D02*
X77723Y286577D01*
X86361Y286577D01*
X86361Y279680D01*
X86111Y278101D01*
X85616Y276580D01*
X84890Y275155D01*
X83950Y273861D01*
X82819Y272730D01*
X81525Y271790D01*
X80100Y271064D01*
X78579Y270569D01*
X77723Y270434D01*
X77723Y286577D01*
G37*
%LPD*%
%LPC*%
G36*
X77723Y36577D02*
X77723Y36577D01*
X86361Y36577D01*
X86361Y29680D01*
X86111Y28101D01*
X85616Y26580D01*
X84890Y25155D01*
X83950Y23861D01*
X82819Y22730D01*
X81525Y21790D01*
X80100Y21064D01*
X78579Y20569D01*
X77723Y20434D01*
X77723Y36577D01*
G37*
%LPD*%
%LPC*%
G36*
X66039Y289623D02*
X66039Y289623D01*
X66039Y296520D01*
X66289Y298099D01*
X66784Y299620D01*
X67510Y301045D01*
X68450Y302339D01*
X69581Y303470D01*
X70875Y304410D01*
X72300Y305136D01*
X73821Y305631D01*
X74677Y305766D01*
X74677Y289623D01*
X66039Y289623D01*
G37*
%LPD*%
%LPC*%
G36*
X66039Y39623D02*
X66039Y39623D01*
X66039Y46520D01*
X66289Y48099D01*
X66784Y49620D01*
X67510Y51045D01*
X68450Y52339D01*
X69581Y53470D01*
X70875Y54410D01*
X72300Y55136D01*
X73821Y55631D01*
X74677Y55766D01*
X74677Y39623D01*
X66039Y39623D01*
G37*
%LPD*%
%LPC*%
G36*
X73821Y270569D02*
X73821Y270569D01*
X72300Y271064D01*
X70875Y271790D01*
X69581Y272730D01*
X68450Y273861D01*
X67510Y275155D01*
X66784Y276580D01*
X66289Y278101D01*
X66039Y279680D01*
X66039Y286577D01*
X74677Y286577D01*
X74677Y270434D01*
X73821Y270569D01*
G37*
%LPD*%
%LPC*%
G36*
X73821Y20569D02*
X73821Y20569D01*
X72300Y21064D01*
X70875Y21790D01*
X69581Y22730D01*
X68450Y23861D01*
X67510Y25155D01*
X66784Y26580D01*
X66289Y28101D01*
X66039Y29680D01*
X66039Y36577D01*
X74677Y36577D01*
X74677Y20434D01*
X73821Y20569D01*
G37*
%LPD*%
%LPC*%
G36*
X497323Y277523D02*
X497323Y277523D01*
X497323Y286161D01*
X500009Y286161D01*
X505961Y280209D01*
X505961Y277523D01*
X497323Y277523D01*
G37*
%LPD*%
%LPC*%
G36*
X497323Y274477D02*
X497323Y274477D01*
X505961Y274477D01*
X505961Y271791D01*
X500009Y265839D01*
X497323Y265839D01*
X497323Y274477D01*
G37*
%LPD*%
%LPC*%
G36*
X485639Y277523D02*
X485639Y277523D01*
X485639Y280209D01*
X491591Y286161D01*
X494277Y286161D01*
X494277Y277523D01*
X485639Y277523D01*
G37*
%LPD*%
%LPC*%
G36*
X491591Y265839D02*
X491591Y265839D01*
X485639Y271791D01*
X485639Y274477D01*
X494277Y274477D01*
X494277Y265839D01*
X491591Y265839D01*
G37*
%LPD*%
%LPC*%
G36*
X76199Y288099D02*
X76199Y288099D01*
X76199Y288101D01*
X76201Y288101D01*
X76201Y288099D01*
X76199Y288099D01*
G37*
%LPD*%
%LPC*%
G36*
X495799Y275999D02*
X495799Y275999D01*
X495799Y276001D01*
X495801Y276001D01*
X495801Y275999D01*
X495799Y275999D01*
G37*
%LPD*%
%LPC*%
G36*
X76199Y38099D02*
X76199Y38099D01*
X76199Y38101D01*
X76201Y38101D01*
X76201Y38099D01*
X76199Y38099D01*
G37*
%LPD*%
D10*
X470400Y276000D03*
X495800Y276000D03*
X470400Y250600D03*
X495800Y250600D03*
X470400Y225200D03*
X495800Y225200D03*
X470400Y199800D03*
X495800Y199800D03*
X470400Y174400D03*
X495800Y174400D03*
X470400Y149000D03*
X495800Y149000D03*
X470400Y123600D03*
X495800Y123600D03*
X470400Y98200D03*
X495800Y98200D03*
X470400Y72800D03*
X495800Y72800D03*
X470400Y47400D03*
X495800Y47400D03*
D11*
X50800Y280480D02*
X50800Y295720D01*
X76200Y295720D02*
X76200Y280480D01*
X101600Y280480D02*
X101600Y295720D01*
X127000Y295720D02*
X127000Y280480D01*
X152400Y280480D02*
X152400Y295720D01*
X177800Y295720D02*
X177800Y280480D01*
X203200Y280480D02*
X203200Y295720D01*
X228600Y295720D02*
X228600Y280480D01*
X254000Y280480D02*
X254000Y295720D01*
X279400Y295720D02*
X279400Y280480D01*
X304800Y280480D02*
X304800Y295720D01*
X330200Y295720D02*
X330200Y280480D01*
X355600Y280480D02*
X355600Y295720D01*
X381000Y295720D02*
X381000Y280480D01*
X406400Y280480D02*
X406400Y295720D01*
X50800Y45720D02*
X50800Y30480D01*
X76200Y30480D02*
X76200Y45720D01*
X101600Y45720D02*
X101600Y30480D01*
X127000Y30480D02*
X127000Y45720D01*
X152400Y45720D02*
X152400Y30480D01*
X177800Y30480D02*
X177800Y45720D01*
X203200Y45720D02*
X203200Y30480D01*
X228600Y30480D02*
X228600Y45720D01*
X254000Y45720D02*
X254000Y30480D01*
X279400Y30480D02*
X279400Y45720D01*
X304800Y45720D02*
X304800Y30480D01*
X330200Y30480D02*
X330200Y45720D01*
X355600Y45720D02*
X355600Y30480D01*
X381000Y30480D02*
X381000Y45720D01*
X406400Y45720D02*
X406400Y30480D01*
D12*
X225425Y15875D02*
X203200Y38100D01*
X225425Y15875D02*
X482600Y15875D01*
X514350Y47625D01*
X514350Y222250D01*
X498475Y222250D01*
X495800Y225200D01*
X254000Y187325D02*
X254000Y38100D01*
X254000Y187325D02*
X485775Y187325D01*
X495300Y196850D01*
X495800Y199800D01*
X279400Y53975D02*
X279400Y38100D01*
X279400Y53975D02*
X355600Y130175D01*
X355600Y161925D01*
X485775Y161925D01*
X495300Y171450D01*
X495800Y174400D01*
X403225Y136525D02*
X304800Y38100D01*
X403225Y136525D02*
X476250Y136525D01*
X485775Y146050D01*
X495300Y146050D01*
X495800Y149000D01*
X403225Y111125D02*
X330200Y38100D01*
X403225Y111125D02*
X485775Y111125D01*
X495300Y120650D01*
X495800Y123600D01*
X403225Y85725D02*
X355600Y38100D01*
X403225Y85725D02*
X485775Y85725D01*
X495300Y95250D01*
X495800Y98200D01*
X403225Y60325D02*
X381000Y38100D01*
X403225Y60325D02*
X485775Y60325D01*
X495300Y69850D01*
X495800Y72800D01*
X409575Y34925D02*
X406400Y38100D01*
X409575Y34925D02*
X485775Y34925D01*
X495300Y44450D01*
X495800Y47400D01*
X495300Y276225D02*
X463550Y307975D01*
X95250Y307975D01*
X76200Y288925D01*
X495300Y276225D02*
X495800Y276000D01*
X76200Y288100D02*
X76200Y288925D01*
X101600Y285750D02*
X171450Y215900D01*
X438150Y215900D01*
X101600Y285750D02*
X101600Y288100D01*
D13*
X438150Y215900D03*
D12*
X212725Y225425D02*
X152400Y285750D01*
X212725Y225425D02*
X469900Y225425D01*
X152400Y285750D02*
X152400Y288100D01*
X469900Y225425D02*
X470400Y225200D01*
X469900Y200025D02*
X263525Y200025D01*
X469900Y200025D02*
X470400Y199800D01*
D13*
X263525Y200025D03*
D12*
X314325Y174625D02*
X469900Y174625D01*
X470400Y174400D01*
D13*
X314325Y174625D03*
D12*
X365125Y149225D02*
X469900Y149225D01*
X470400Y149000D01*
D13*
X365125Y149225D03*
D12*
X276225Y263525D02*
X254000Y285750D01*
X276225Y263525D02*
X476250Y263525D01*
X482600Y257175D01*
X482600Y212725D01*
X501650Y212725D01*
X508000Y206375D01*
X508000Y136525D01*
X485775Y136525D01*
X473075Y123825D01*
X254000Y285750D02*
X254000Y288100D01*
X470400Y123600D02*
X473075Y123825D01*
M02*
