G04 EAGLE Gerber RS-274X export*
G75*
%MOMM*%
%FSLAX34Y34*%
%LPD*%
%INTop Copper*%
%IPPOS*%
%AMOC8*
5,1,8,0,0,1.08239X$1,22.5*%
G01*
%ADD10P,1.649562X8X292.500000*%
%ADD11C,1.524000*%
%ADD12C,0.304800*%
%ADD13C,0.756400*%

G36*
X521398Y10164D02*
X521398Y10164D01*
X521417Y10162D01*
X521519Y10184D01*
X521621Y10200D01*
X521638Y10210D01*
X521658Y10214D01*
X521747Y10267D01*
X521838Y10316D01*
X521852Y10330D01*
X521869Y10340D01*
X521936Y10419D01*
X522008Y10494D01*
X522016Y10512D01*
X522029Y10527D01*
X522068Y10623D01*
X522111Y10717D01*
X522113Y10737D01*
X522121Y10755D01*
X522139Y10922D01*
X522139Y313622D01*
X522125Y313712D01*
X522117Y313803D01*
X522105Y313833D01*
X522100Y313865D01*
X522057Y313945D01*
X522021Y314029D01*
X521995Y314061D01*
X521984Y314082D01*
X521961Y314104D01*
X521916Y314160D01*
X521560Y314516D01*
X521486Y314569D01*
X521417Y314629D01*
X521387Y314641D01*
X521361Y314660D01*
X521274Y314687D01*
X521189Y314721D01*
X521148Y314725D01*
X521125Y314732D01*
X521093Y314731D01*
X521022Y314739D01*
X10922Y314739D01*
X10902Y314736D01*
X10883Y314738D01*
X10781Y314716D01*
X10679Y314700D01*
X10662Y314690D01*
X10642Y314686D01*
X10553Y314633D01*
X10462Y314584D01*
X10448Y314570D01*
X10431Y314560D01*
X10364Y314481D01*
X10292Y314406D01*
X10284Y314388D01*
X10271Y314373D01*
X10232Y314277D01*
X10189Y314183D01*
X10187Y314163D01*
X10179Y314145D01*
X10161Y313978D01*
X10161Y10922D01*
X10164Y10902D01*
X10162Y10883D01*
X10184Y10781D01*
X10200Y10679D01*
X10210Y10662D01*
X10214Y10642D01*
X10267Y10553D01*
X10316Y10462D01*
X10330Y10448D01*
X10340Y10431D01*
X10419Y10364D01*
X10494Y10292D01*
X10512Y10284D01*
X10527Y10271D01*
X10623Y10232D01*
X10717Y10189D01*
X10737Y10187D01*
X10755Y10179D01*
X10922Y10161D01*
X521378Y10161D01*
X521398Y10164D01*
G37*
%LPC*%
G36*
X175678Y19811D02*
X175678Y19811D01*
X171757Y21435D01*
X168755Y24437D01*
X167131Y28358D01*
X167131Y47842D01*
X168755Y51763D01*
X171757Y54765D01*
X175678Y56389D01*
X179922Y56389D01*
X183843Y54765D01*
X185382Y53226D01*
X185398Y53214D01*
X185411Y53198D01*
X185498Y53142D01*
X185582Y53082D01*
X185601Y53076D01*
X185618Y53065D01*
X185718Y53040D01*
X185817Y53010D01*
X185837Y53010D01*
X185856Y53005D01*
X185959Y53013D01*
X186063Y53016D01*
X186082Y53023D01*
X186102Y53025D01*
X186196Y53065D01*
X186294Y53101D01*
X186310Y53113D01*
X186328Y53121D01*
X186459Y53226D01*
X272806Y139573D01*
X391894Y139573D01*
X411903Y119564D01*
X411961Y119522D01*
X412013Y119473D01*
X412060Y119451D01*
X412102Y119421D01*
X412171Y119399D01*
X412236Y119369D01*
X412288Y119363D01*
X412338Y119348D01*
X412409Y119350D01*
X412480Y119342D01*
X412531Y119353D01*
X412583Y119355D01*
X412651Y119379D01*
X412721Y119394D01*
X412766Y119421D01*
X412814Y119439D01*
X412870Y119484D01*
X412932Y119521D01*
X412966Y119560D01*
X413006Y119593D01*
X413045Y119653D01*
X413092Y119707D01*
X413111Y119756D01*
X413139Y119800D01*
X413157Y119869D01*
X413184Y119936D01*
X413192Y120007D01*
X413200Y120038D01*
X413198Y120061D01*
X413202Y120102D01*
X413202Y170566D01*
X413188Y170656D01*
X413180Y170747D01*
X413168Y170776D01*
X413163Y170808D01*
X413120Y170889D01*
X413084Y170973D01*
X413058Y171005D01*
X413047Y171026D01*
X413024Y171048D01*
X412979Y171104D01*
X312284Y271799D01*
X312268Y271811D01*
X312255Y271827D01*
X312168Y271883D01*
X312084Y271943D01*
X312065Y271949D01*
X312048Y271960D01*
X311948Y271985D01*
X311849Y272015D01*
X311829Y272015D01*
X311810Y272020D01*
X311707Y272012D01*
X311603Y272009D01*
X311584Y272002D01*
X311564Y272000D01*
X311470Y271960D01*
X311372Y271924D01*
X311356Y271912D01*
X311338Y271904D01*
X311207Y271799D01*
X310843Y271435D01*
X306922Y269811D01*
X302678Y269811D01*
X298757Y271435D01*
X295755Y274437D01*
X294131Y278358D01*
X294131Y297842D01*
X295755Y301763D01*
X296095Y302103D01*
X296137Y302161D01*
X296186Y302213D01*
X296208Y302260D01*
X296238Y302302D01*
X296259Y302371D01*
X296290Y302436D01*
X296295Y302488D01*
X296311Y302538D01*
X296309Y302609D01*
X296317Y302680D01*
X296306Y302731D01*
X296304Y302783D01*
X296280Y302851D01*
X296265Y302921D01*
X296238Y302966D01*
X296220Y303014D01*
X296175Y303070D01*
X296138Y303132D01*
X296099Y303166D01*
X296066Y303206D01*
X296006Y303245D01*
X295951Y303292D01*
X295903Y303311D01*
X295859Y303339D01*
X295790Y303357D01*
X295723Y303384D01*
X295652Y303392D01*
X295621Y303400D01*
X295598Y303398D01*
X295557Y303402D01*
X288643Y303402D01*
X288573Y303391D01*
X288501Y303389D01*
X288452Y303371D01*
X288401Y303363D01*
X288337Y303329D01*
X288270Y303304D01*
X288229Y303272D01*
X288183Y303247D01*
X288134Y303196D01*
X288078Y303151D01*
X288050Y303107D01*
X288014Y303069D01*
X287984Y303004D01*
X287945Y302944D01*
X287932Y302893D01*
X287910Y302846D01*
X287902Y302775D01*
X287885Y302705D01*
X287889Y302653D01*
X287883Y302602D01*
X287898Y302531D01*
X287904Y302460D01*
X287924Y302412D01*
X287935Y302361D01*
X287972Y302300D01*
X288000Y302234D01*
X288045Y302178D01*
X288062Y302150D01*
X288079Y302135D01*
X288105Y302103D01*
X288445Y301763D01*
X290069Y297842D01*
X290069Y278358D01*
X288445Y274437D01*
X285443Y271435D01*
X281522Y269811D01*
X277278Y269811D01*
X273357Y271435D01*
X270355Y274437D01*
X268731Y278358D01*
X268731Y297842D01*
X270355Y301763D01*
X273357Y304765D01*
X274357Y305179D01*
X274457Y305241D01*
X274557Y305301D01*
X274561Y305305D01*
X274566Y305309D01*
X274641Y305399D01*
X274717Y305487D01*
X274719Y305493D01*
X274723Y305498D01*
X274765Y305607D01*
X274809Y305716D01*
X274810Y305723D01*
X274811Y305728D01*
X274812Y305746D01*
X274827Y305882D01*
X274827Y309869D01*
X277506Y312548D01*
X363844Y312548D01*
X372754Y303638D01*
X372770Y303627D01*
X372782Y303611D01*
X372870Y303555D01*
X372953Y303495D01*
X372972Y303489D01*
X372989Y303478D01*
X373090Y303453D01*
X373189Y303422D01*
X373208Y303423D01*
X373228Y303418D01*
X373331Y303426D01*
X373434Y303429D01*
X373453Y303435D01*
X373473Y303437D01*
X373568Y303477D01*
X373665Y303513D01*
X373681Y303526D01*
X373699Y303533D01*
X373830Y303638D01*
X374957Y304765D01*
X378878Y306389D01*
X383122Y306389D01*
X387043Y304765D01*
X390045Y301763D01*
X391669Y297842D01*
X391669Y278358D01*
X390045Y274437D01*
X387043Y271435D01*
X383122Y269811D01*
X379843Y269811D01*
X379773Y269800D01*
X379701Y269798D01*
X379652Y269780D01*
X379601Y269772D01*
X379537Y269738D01*
X379470Y269713D01*
X379429Y269681D01*
X379383Y269656D01*
X379334Y269605D01*
X379278Y269560D01*
X379250Y269516D01*
X379214Y269478D01*
X379184Y269413D01*
X379145Y269353D01*
X379132Y269302D01*
X379110Y269255D01*
X379102Y269184D01*
X379085Y269114D01*
X379089Y269062D01*
X379083Y269011D01*
X379098Y268940D01*
X379104Y268869D01*
X379124Y268821D01*
X379135Y268770D01*
X379172Y268709D01*
X379200Y268643D01*
X379245Y268587D01*
X379262Y268559D01*
X379279Y268544D01*
X379305Y268512D01*
X430291Y217526D01*
X430328Y217499D01*
X430359Y217465D01*
X430427Y217428D01*
X430490Y217383D01*
X430534Y217369D01*
X430575Y217347D01*
X430651Y217333D01*
X430726Y217310D01*
X430771Y217311D01*
X430817Y217303D01*
X430894Y217315D01*
X430971Y217317D01*
X431015Y217332D01*
X431060Y217339D01*
X431129Y217374D01*
X431202Y217401D01*
X431238Y217430D01*
X431279Y217450D01*
X431334Y217506D01*
X431394Y217555D01*
X431419Y217593D01*
X431451Y217626D01*
X431517Y217746D01*
X431527Y217762D01*
X431529Y217766D01*
X431532Y217773D01*
X432359Y219769D01*
X434281Y221691D01*
X436791Y222731D01*
X438199Y222731D01*
X438289Y222745D01*
X438380Y222753D01*
X438409Y222765D01*
X438441Y222770D01*
X438522Y222813D01*
X438606Y222849D01*
X438638Y222875D01*
X438659Y222886D01*
X438681Y222909D01*
X438737Y222954D01*
X460309Y244526D01*
X460321Y244542D01*
X460337Y244555D01*
X460393Y244642D01*
X460453Y244726D01*
X460459Y244745D01*
X460470Y244762D01*
X460495Y244862D01*
X460525Y244961D01*
X460525Y244981D01*
X460530Y245000D01*
X460522Y245103D01*
X460519Y245207D01*
X460512Y245226D01*
X460511Y245245D01*
X460470Y245340D01*
X460434Y245438D01*
X460422Y245454D01*
X460414Y245472D01*
X460309Y245603D01*
X459731Y246181D01*
X459731Y255019D01*
X465981Y261269D01*
X474819Y261269D01*
X481069Y255019D01*
X481069Y246181D01*
X474819Y239931D01*
X468963Y239931D01*
X468873Y239917D01*
X468782Y239909D01*
X468753Y239897D01*
X468721Y239892D01*
X468640Y239849D01*
X468556Y239813D01*
X468524Y239787D01*
X468503Y239776D01*
X468481Y239753D01*
X468425Y239708D01*
X465885Y237168D01*
X465843Y237110D01*
X465794Y237058D01*
X465772Y237011D01*
X465742Y236969D01*
X465720Y236900D01*
X465690Y236835D01*
X465684Y236783D01*
X465669Y236733D01*
X465671Y236662D01*
X465663Y236591D01*
X465674Y236540D01*
X465676Y236488D01*
X465700Y236420D01*
X465715Y236350D01*
X465742Y236306D01*
X465760Y236257D01*
X465805Y236201D01*
X465842Y236139D01*
X465881Y236105D01*
X465914Y236065D01*
X465974Y236026D01*
X466028Y235979D01*
X466077Y235960D01*
X466121Y235932D01*
X466190Y235914D01*
X466257Y235887D01*
X466328Y235879D01*
X466359Y235871D01*
X466382Y235873D01*
X466423Y235869D01*
X474819Y235869D01*
X477736Y232952D01*
X477794Y232910D01*
X477846Y232861D01*
X477893Y232839D01*
X477935Y232809D01*
X478004Y232787D01*
X478069Y232757D01*
X478121Y232752D01*
X478171Y232736D01*
X478242Y232738D01*
X478313Y232730D01*
X478364Y232741D01*
X478416Y232743D01*
X478484Y232767D01*
X478554Y232782D01*
X478599Y232809D01*
X478647Y232827D01*
X478703Y232872D01*
X478765Y232909D01*
X478799Y232948D01*
X478839Y232981D01*
X478878Y233041D01*
X478925Y233096D01*
X478944Y233144D01*
X478972Y233188D01*
X478990Y233257D01*
X479017Y233324D01*
X479025Y233395D01*
X479033Y233426D01*
X479031Y233449D01*
X479035Y233490D01*
X479035Y240302D01*
X481937Y243204D01*
X484908Y246175D01*
X484961Y246249D01*
X485021Y246319D01*
X485033Y246349D01*
X485052Y246375D01*
X485079Y246462D01*
X485113Y246547D01*
X485117Y246588D01*
X485124Y246610D01*
X485123Y246642D01*
X485131Y246713D01*
X485131Y255019D01*
X491381Y261269D01*
X500219Y261269D01*
X506469Y255019D01*
X506469Y246181D01*
X500219Y239931D01*
X491913Y239931D01*
X491823Y239917D01*
X491732Y239909D01*
X491703Y239897D01*
X491671Y239892D01*
X491590Y239849D01*
X491506Y239813D01*
X491474Y239787D01*
X491453Y239776D01*
X491431Y239753D01*
X491375Y239708D01*
X488404Y236737D01*
X488351Y236663D01*
X488291Y236593D01*
X488279Y236563D01*
X488260Y236537D01*
X488233Y236450D01*
X488199Y236365D01*
X488195Y236324D01*
X488188Y236302D01*
X488189Y236270D01*
X488181Y236199D01*
X488181Y234506D01*
X488192Y234436D01*
X488194Y234364D01*
X488212Y234315D01*
X488220Y234264D01*
X488254Y234200D01*
X488279Y234133D01*
X488311Y234092D01*
X488336Y234046D01*
X488388Y233997D01*
X488432Y233941D01*
X488476Y233913D01*
X488514Y233877D01*
X488579Y233847D01*
X488639Y233808D01*
X488690Y233795D01*
X488737Y233773D01*
X488808Y233765D01*
X488878Y233748D01*
X488930Y233752D01*
X488981Y233746D01*
X489052Y233761D01*
X489123Y233767D01*
X489171Y233787D01*
X489222Y233798D01*
X489283Y233835D01*
X489349Y233863D01*
X489405Y233908D01*
X489433Y233925D01*
X489448Y233942D01*
X489480Y233968D01*
X491381Y235869D01*
X500219Y235869D01*
X506469Y229619D01*
X506469Y220781D01*
X500219Y214531D01*
X491381Y214531D01*
X489480Y216432D01*
X489422Y216474D01*
X489370Y216523D01*
X489323Y216545D01*
X489281Y216575D01*
X489212Y216597D01*
X489147Y216627D01*
X489095Y216632D01*
X489045Y216648D01*
X488974Y216646D01*
X488903Y216654D01*
X488852Y216643D01*
X488800Y216641D01*
X488732Y216617D01*
X488662Y216602D01*
X488617Y216575D01*
X488569Y216557D01*
X488513Y216512D01*
X488451Y216475D01*
X488417Y216436D01*
X488377Y216403D01*
X488338Y216343D01*
X488291Y216288D01*
X488272Y216240D01*
X488244Y216196D01*
X488226Y216127D01*
X488199Y216060D01*
X488191Y215989D01*
X488183Y215958D01*
X488185Y215935D01*
X488181Y215894D01*
X488181Y209106D01*
X488192Y209036D01*
X488194Y208964D01*
X488212Y208915D01*
X488220Y208864D01*
X488254Y208800D01*
X488279Y208733D01*
X488311Y208692D01*
X488336Y208646D01*
X488388Y208597D01*
X488432Y208541D01*
X488476Y208513D01*
X488514Y208477D01*
X488579Y208447D01*
X488639Y208408D01*
X488690Y208395D01*
X488737Y208373D01*
X488808Y208365D01*
X488878Y208348D01*
X488930Y208352D01*
X488981Y208346D01*
X489052Y208361D01*
X489123Y208367D01*
X489171Y208387D01*
X489222Y208398D01*
X489283Y208435D01*
X489349Y208463D01*
X489405Y208508D01*
X489433Y208525D01*
X489448Y208542D01*
X489480Y208568D01*
X491381Y210469D01*
X500219Y210469D01*
X506469Y204219D01*
X506469Y195381D01*
X500219Y189131D01*
X491381Y189131D01*
X489480Y191032D01*
X489422Y191074D01*
X489370Y191123D01*
X489323Y191145D01*
X489281Y191175D01*
X489212Y191197D01*
X489147Y191227D01*
X489095Y191232D01*
X489045Y191248D01*
X488974Y191246D01*
X488903Y191254D01*
X488852Y191243D01*
X488800Y191241D01*
X488732Y191217D01*
X488662Y191202D01*
X488617Y191175D01*
X488569Y191157D01*
X488513Y191112D01*
X488451Y191075D01*
X488417Y191036D01*
X488377Y191003D01*
X488338Y190943D01*
X488291Y190888D01*
X488272Y190840D01*
X488244Y190796D01*
X488226Y190727D01*
X488199Y190660D01*
X488191Y190589D01*
X488183Y190558D01*
X488185Y190535D01*
X488181Y190494D01*
X488181Y183706D01*
X488183Y183695D01*
X488182Y183686D01*
X488191Y183644D01*
X488192Y183636D01*
X488194Y183564D01*
X488212Y183515D01*
X488220Y183464D01*
X488254Y183400D01*
X488279Y183333D01*
X488311Y183292D01*
X488336Y183246D01*
X488388Y183197D01*
X488432Y183141D01*
X488476Y183113D01*
X488514Y183077D01*
X488579Y183047D01*
X488639Y183008D01*
X488690Y182995D01*
X488737Y182973D01*
X488808Y182965D01*
X488878Y182948D01*
X488930Y182952D01*
X488981Y182946D01*
X489052Y182961D01*
X489123Y182967D01*
X489171Y182987D01*
X489222Y182998D01*
X489283Y183035D01*
X489349Y183063D01*
X489405Y183108D01*
X489433Y183125D01*
X489448Y183142D01*
X489480Y183168D01*
X491381Y185069D01*
X500219Y185069D01*
X506469Y178819D01*
X506469Y169981D01*
X500219Y163731D01*
X491381Y163731D01*
X489480Y165632D01*
X489422Y165674D01*
X489370Y165723D01*
X489323Y165745D01*
X489281Y165775D01*
X489212Y165797D01*
X489147Y165827D01*
X489095Y165832D01*
X489045Y165848D01*
X488974Y165846D01*
X488903Y165854D01*
X488852Y165843D01*
X488800Y165841D01*
X488732Y165817D01*
X488662Y165802D01*
X488617Y165775D01*
X488569Y165757D01*
X488513Y165712D01*
X488451Y165675D01*
X488417Y165636D01*
X488377Y165603D01*
X488338Y165543D01*
X488291Y165488D01*
X488272Y165440D01*
X488244Y165396D01*
X488226Y165327D01*
X488199Y165260D01*
X488191Y165189D01*
X488183Y165158D01*
X488185Y165135D01*
X488181Y165094D01*
X488181Y158306D01*
X488192Y158236D01*
X488194Y158164D01*
X488212Y158115D01*
X488220Y158064D01*
X488254Y158000D01*
X488279Y157933D01*
X488311Y157892D01*
X488336Y157846D01*
X488388Y157797D01*
X488432Y157741D01*
X488476Y157713D01*
X488514Y157677D01*
X488579Y157647D01*
X488639Y157608D01*
X488690Y157595D01*
X488737Y157573D01*
X488808Y157565D01*
X488878Y157548D01*
X488930Y157552D01*
X488981Y157546D01*
X489052Y157561D01*
X489123Y157567D01*
X489171Y157587D01*
X489222Y157598D01*
X489283Y157635D01*
X489349Y157663D01*
X489405Y157708D01*
X489433Y157725D01*
X489448Y157742D01*
X489480Y157768D01*
X491381Y159669D01*
X500219Y159669D01*
X506469Y153419D01*
X506469Y144581D01*
X500219Y138331D01*
X491381Y138331D01*
X489480Y140232D01*
X489422Y140274D01*
X489370Y140323D01*
X489323Y140345D01*
X489281Y140375D01*
X489212Y140397D01*
X489147Y140427D01*
X489095Y140432D01*
X489045Y140448D01*
X488974Y140446D01*
X488903Y140454D01*
X488852Y140443D01*
X488800Y140441D01*
X488732Y140417D01*
X488662Y140402D01*
X488617Y140375D01*
X488569Y140357D01*
X488513Y140312D01*
X488451Y140275D01*
X488417Y140236D01*
X488377Y140203D01*
X488338Y140143D01*
X488291Y140088D01*
X488272Y140040D01*
X488244Y139996D01*
X488226Y139927D01*
X488199Y139860D01*
X488191Y139789D01*
X488183Y139758D01*
X488185Y139735D01*
X488181Y139694D01*
X488181Y132906D01*
X488192Y132836D01*
X488194Y132764D01*
X488212Y132715D01*
X488220Y132664D01*
X488254Y132600D01*
X488279Y132533D01*
X488311Y132492D01*
X488336Y132446D01*
X488388Y132397D01*
X488432Y132341D01*
X488476Y132313D01*
X488514Y132277D01*
X488579Y132247D01*
X488639Y132208D01*
X488690Y132195D01*
X488737Y132173D01*
X488808Y132165D01*
X488878Y132148D01*
X488930Y132152D01*
X488981Y132146D01*
X489052Y132161D01*
X489123Y132167D01*
X489171Y132187D01*
X489222Y132198D01*
X489283Y132235D01*
X489349Y132263D01*
X489405Y132308D01*
X489433Y132325D01*
X489448Y132342D01*
X489480Y132368D01*
X491381Y134269D01*
X500219Y134269D01*
X506469Y128019D01*
X506469Y119181D01*
X500219Y112931D01*
X491381Y112931D01*
X489480Y114832D01*
X489422Y114874D01*
X489370Y114923D01*
X489323Y114945D01*
X489281Y114975D01*
X489212Y114997D01*
X489147Y115027D01*
X489095Y115032D01*
X489045Y115048D01*
X488974Y115046D01*
X488903Y115054D01*
X488852Y115043D01*
X488800Y115041D01*
X488732Y115017D01*
X488662Y115002D01*
X488617Y114975D01*
X488569Y114957D01*
X488513Y114912D01*
X488451Y114875D01*
X488417Y114836D01*
X488377Y114803D01*
X488338Y114743D01*
X488291Y114688D01*
X488272Y114640D01*
X488244Y114596D01*
X488226Y114527D01*
X488199Y114460D01*
X488191Y114389D01*
X488183Y114358D01*
X488185Y114335D01*
X488181Y114294D01*
X488181Y107506D01*
X488192Y107436D01*
X488194Y107364D01*
X488212Y107315D01*
X488220Y107264D01*
X488254Y107200D01*
X488279Y107133D01*
X488311Y107092D01*
X488336Y107046D01*
X488388Y106997D01*
X488432Y106941D01*
X488476Y106913D01*
X488514Y106877D01*
X488579Y106847D01*
X488639Y106808D01*
X488690Y106795D01*
X488737Y106773D01*
X488808Y106765D01*
X488878Y106748D01*
X488930Y106752D01*
X488981Y106746D01*
X489052Y106761D01*
X489123Y106767D01*
X489171Y106787D01*
X489222Y106798D01*
X489283Y106835D01*
X489349Y106863D01*
X489405Y106908D01*
X489433Y106925D01*
X489448Y106942D01*
X489480Y106968D01*
X491381Y108869D01*
X500219Y108869D01*
X506469Y102619D01*
X506469Y93781D01*
X503037Y90349D01*
X503025Y90333D01*
X503009Y90320D01*
X502953Y90233D01*
X502893Y90149D01*
X502887Y90130D01*
X502876Y90113D01*
X502851Y90013D01*
X502821Y89914D01*
X502821Y89894D01*
X502816Y89875D01*
X502824Y89772D01*
X502827Y89668D01*
X502834Y89649D01*
X502836Y89630D01*
X502876Y89535D01*
X502912Y89437D01*
X502924Y89421D01*
X502932Y89403D01*
X503037Y89272D01*
X512565Y79744D01*
X512565Y40456D01*
X509663Y37554D01*
X499267Y27158D01*
X496365Y24256D01*
X461214Y24256D01*
X407106Y78364D01*
X407106Y111112D01*
X407092Y111202D01*
X407084Y111293D01*
X407072Y111322D01*
X407067Y111354D01*
X407024Y111435D01*
X406988Y111519D01*
X406962Y111551D01*
X406951Y111572D01*
X406928Y111594D01*
X406883Y111650D01*
X388329Y130204D01*
X388255Y130257D01*
X388185Y130317D01*
X388155Y130329D01*
X388129Y130348D01*
X388042Y130375D01*
X387957Y130409D01*
X387916Y130413D01*
X387894Y130420D01*
X387862Y130419D01*
X387791Y130427D01*
X276909Y130427D01*
X276819Y130413D01*
X276728Y130405D01*
X276699Y130393D01*
X276667Y130388D01*
X276586Y130345D01*
X276502Y130309D01*
X276470Y130283D01*
X276449Y130272D01*
X276427Y130249D01*
X276371Y130204D01*
X203855Y57688D01*
X203813Y57630D01*
X203764Y57578D01*
X203742Y57531D01*
X203712Y57489D01*
X203690Y57420D01*
X203660Y57355D01*
X203654Y57303D01*
X203639Y57253D01*
X203641Y57182D01*
X203633Y57111D01*
X203644Y57060D01*
X203646Y57008D01*
X203670Y56940D01*
X203685Y56870D01*
X203712Y56825D01*
X203730Y56777D01*
X203775Y56721D01*
X203812Y56659D01*
X203851Y56625D01*
X203884Y56585D01*
X203944Y56546D01*
X203998Y56499D01*
X204047Y56480D01*
X204091Y56452D01*
X204160Y56434D01*
X204227Y56407D01*
X204298Y56399D01*
X204329Y56391D01*
X204352Y56393D01*
X204393Y56389D01*
X205322Y56389D01*
X209243Y54765D01*
X212245Y51763D01*
X213869Y47842D01*
X213869Y28358D01*
X212245Y24437D01*
X209243Y21435D01*
X205322Y19811D01*
X201078Y19811D01*
X197157Y21435D01*
X194155Y24437D01*
X192531Y28358D01*
X192531Y44527D01*
X192520Y44597D01*
X192518Y44669D01*
X192500Y44718D01*
X192492Y44769D01*
X192458Y44833D01*
X192433Y44900D01*
X192401Y44941D01*
X192376Y44987D01*
X192324Y45036D01*
X192280Y45092D01*
X192236Y45120D01*
X192198Y45156D01*
X192133Y45186D01*
X192073Y45225D01*
X192022Y45238D01*
X191975Y45260D01*
X191904Y45268D01*
X191834Y45285D01*
X191782Y45281D01*
X191731Y45287D01*
X191660Y45272D01*
X191589Y45266D01*
X191541Y45246D01*
X191490Y45235D01*
X191429Y45198D01*
X191363Y45170D01*
X191307Y45125D01*
X191279Y45108D01*
X191264Y45091D01*
X191232Y45065D01*
X188692Y42525D01*
X188639Y42451D01*
X188579Y42381D01*
X188567Y42351D01*
X188548Y42325D01*
X188521Y42238D01*
X188487Y42153D01*
X188483Y42112D01*
X188476Y42090D01*
X188477Y42058D01*
X188469Y41987D01*
X188469Y28358D01*
X186845Y24437D01*
X183843Y21435D01*
X179922Y19811D01*
X175678Y19811D01*
G37*
%LPD*%
%LPC*%
G36*
X363766Y142394D02*
X363766Y142394D01*
X361256Y143434D01*
X359334Y145356D01*
X358294Y147866D01*
X358294Y149274D01*
X358280Y149364D01*
X358272Y149455D01*
X358260Y149484D01*
X358255Y149516D01*
X358212Y149597D01*
X358176Y149681D01*
X358150Y149713D01*
X358139Y149734D01*
X358116Y149756D01*
X358071Y149812D01*
X236084Y271799D01*
X236068Y271811D01*
X236055Y271827D01*
X235968Y271883D01*
X235884Y271943D01*
X235865Y271949D01*
X235848Y271960D01*
X235748Y271985D01*
X235649Y272015D01*
X235629Y272015D01*
X235610Y272020D01*
X235507Y272012D01*
X235403Y272009D01*
X235384Y272002D01*
X235364Y272000D01*
X235270Y271960D01*
X235172Y271924D01*
X235156Y271912D01*
X235138Y271904D01*
X235007Y271799D01*
X234643Y271435D01*
X230722Y269811D01*
X227443Y269811D01*
X227373Y269800D01*
X227301Y269798D01*
X227252Y269780D01*
X227201Y269772D01*
X227137Y269738D01*
X227070Y269713D01*
X227029Y269681D01*
X226983Y269656D01*
X226934Y269604D01*
X226878Y269560D01*
X226850Y269516D01*
X226814Y269478D01*
X226784Y269413D01*
X226745Y269353D01*
X226732Y269302D01*
X226710Y269255D01*
X226702Y269184D01*
X226685Y269114D01*
X226689Y269062D01*
X226683Y269011D01*
X226698Y268940D01*
X226704Y268869D01*
X226724Y268821D01*
X226735Y268770D01*
X226772Y268709D01*
X226800Y268643D01*
X226845Y268587D01*
X226862Y268559D01*
X226879Y268544D01*
X226905Y268512D01*
X313738Y181679D01*
X313812Y181626D01*
X313882Y181566D01*
X313912Y181554D01*
X313938Y181535D01*
X314025Y181508D01*
X314110Y181474D01*
X314151Y181470D01*
X314173Y181463D01*
X314205Y181464D01*
X314276Y181456D01*
X315684Y181456D01*
X318194Y180416D01*
X320116Y178494D01*
X321156Y175984D01*
X321156Y173266D01*
X320116Y170756D01*
X318194Y168834D01*
X315684Y167794D01*
X312966Y167794D01*
X310456Y168834D01*
X308534Y170756D01*
X307494Y173266D01*
X307494Y174674D01*
X307480Y174764D01*
X307472Y174855D01*
X307460Y174884D01*
X307455Y174916D01*
X307412Y174997D01*
X307376Y175081D01*
X307350Y175113D01*
X307339Y175134D01*
X307316Y175156D01*
X307271Y175212D01*
X210684Y271799D01*
X210668Y271811D01*
X210655Y271827D01*
X210568Y271883D01*
X210484Y271943D01*
X210465Y271949D01*
X210448Y271960D01*
X210348Y271985D01*
X210249Y272015D01*
X210229Y272015D01*
X210210Y272020D01*
X210107Y272012D01*
X210003Y272009D01*
X209984Y272002D01*
X209964Y272000D01*
X209870Y271960D01*
X209772Y271924D01*
X209756Y271912D01*
X209738Y271904D01*
X209607Y271799D01*
X209243Y271435D01*
X205322Y269811D01*
X202043Y269811D01*
X201973Y269800D01*
X201901Y269798D01*
X201852Y269780D01*
X201801Y269772D01*
X201737Y269738D01*
X201670Y269713D01*
X201629Y269681D01*
X201583Y269656D01*
X201534Y269604D01*
X201478Y269560D01*
X201450Y269516D01*
X201414Y269478D01*
X201384Y269413D01*
X201345Y269353D01*
X201332Y269302D01*
X201310Y269255D01*
X201302Y269184D01*
X201285Y269114D01*
X201289Y269062D01*
X201283Y269011D01*
X201298Y268940D01*
X201304Y268869D01*
X201324Y268821D01*
X201335Y268770D01*
X201372Y268709D01*
X201400Y268643D01*
X201445Y268587D01*
X201462Y268559D01*
X201479Y268544D01*
X201505Y268512D01*
X262938Y207079D01*
X263012Y207026D01*
X263082Y206966D01*
X263112Y206954D01*
X263138Y206935D01*
X263225Y206908D01*
X263310Y206874D01*
X263351Y206870D01*
X263373Y206863D01*
X263405Y206864D01*
X263476Y206856D01*
X264884Y206856D01*
X267394Y205816D01*
X269316Y203894D01*
X270356Y201384D01*
X270356Y198666D01*
X269316Y196156D01*
X267394Y194234D01*
X264884Y193194D01*
X262166Y193194D01*
X259656Y194234D01*
X257734Y196156D01*
X256694Y198666D01*
X256694Y200074D01*
X256680Y200164D01*
X256672Y200255D01*
X256660Y200284D01*
X256655Y200316D01*
X256612Y200397D01*
X256576Y200481D01*
X256550Y200513D01*
X256539Y200534D01*
X256516Y200556D01*
X256471Y200612D01*
X185284Y271799D01*
X185268Y271811D01*
X185255Y271827D01*
X185168Y271883D01*
X185084Y271943D01*
X185065Y271949D01*
X185048Y271960D01*
X184948Y271985D01*
X184849Y272015D01*
X184829Y272015D01*
X184810Y272020D01*
X184707Y272012D01*
X184603Y272009D01*
X184584Y272002D01*
X184564Y272000D01*
X184470Y271960D01*
X184372Y271924D01*
X184356Y271912D01*
X184338Y271904D01*
X184207Y271799D01*
X183843Y271435D01*
X179922Y269811D01*
X175678Y269811D01*
X171757Y271435D01*
X168755Y274437D01*
X167131Y278358D01*
X167131Y297842D01*
X168755Y301763D01*
X171757Y304765D01*
X175678Y306389D01*
X179922Y306389D01*
X183843Y304765D01*
X186845Y301763D01*
X188469Y297842D01*
X188469Y281863D01*
X188483Y281773D01*
X188491Y281682D01*
X188503Y281653D01*
X188508Y281621D01*
X188551Y281540D01*
X188587Y281456D01*
X188613Y281424D01*
X188624Y281403D01*
X188647Y281381D01*
X188692Y281325D01*
X191232Y278785D01*
X191290Y278743D01*
X191342Y278694D01*
X191389Y278672D01*
X191431Y278642D01*
X191500Y278620D01*
X191565Y278590D01*
X191617Y278585D01*
X191667Y278569D01*
X191738Y278571D01*
X191809Y278563D01*
X191860Y278574D01*
X191912Y278576D01*
X191980Y278600D01*
X192050Y278615D01*
X192095Y278642D01*
X192143Y278660D01*
X192199Y278705D01*
X192261Y278742D01*
X192295Y278781D01*
X192335Y278814D01*
X192374Y278874D01*
X192421Y278928D01*
X192440Y278977D01*
X192468Y279021D01*
X192486Y279090D01*
X192513Y279157D01*
X192521Y279228D01*
X192529Y279259D01*
X192527Y279282D01*
X192531Y279323D01*
X192531Y297842D01*
X194155Y301763D01*
X197157Y304765D01*
X201078Y306389D01*
X205322Y306389D01*
X209243Y304765D01*
X212245Y301763D01*
X213869Y297842D01*
X213869Y281863D01*
X213883Y281773D01*
X213891Y281682D01*
X213903Y281653D01*
X213908Y281621D01*
X213951Y281540D01*
X213987Y281456D01*
X214013Y281424D01*
X214024Y281403D01*
X214047Y281381D01*
X214092Y281325D01*
X216632Y278785D01*
X216690Y278743D01*
X216742Y278694D01*
X216789Y278672D01*
X216831Y278642D01*
X216900Y278620D01*
X216965Y278590D01*
X217017Y278585D01*
X217067Y278569D01*
X217138Y278571D01*
X217209Y278563D01*
X217260Y278574D01*
X217312Y278576D01*
X217380Y278600D01*
X217450Y278615D01*
X217495Y278642D01*
X217543Y278660D01*
X217599Y278705D01*
X217661Y278742D01*
X217695Y278781D01*
X217735Y278814D01*
X217774Y278874D01*
X217821Y278928D01*
X217840Y278977D01*
X217868Y279021D01*
X217886Y279090D01*
X217913Y279157D01*
X217921Y279228D01*
X217929Y279259D01*
X217927Y279282D01*
X217931Y279323D01*
X217931Y297842D01*
X219555Y301763D01*
X222557Y304765D01*
X226478Y306389D01*
X230722Y306389D01*
X234643Y304765D01*
X237645Y301763D01*
X239269Y297842D01*
X239269Y281863D01*
X239283Y281773D01*
X239291Y281682D01*
X239303Y281653D01*
X239308Y281621D01*
X239351Y281540D01*
X239387Y281456D01*
X239413Y281424D01*
X239424Y281403D01*
X239447Y281381D01*
X239492Y281325D01*
X242032Y278785D01*
X242090Y278743D01*
X242142Y278694D01*
X242189Y278672D01*
X242231Y278642D01*
X242300Y278620D01*
X242365Y278590D01*
X242417Y278585D01*
X242467Y278569D01*
X242538Y278571D01*
X242609Y278563D01*
X242660Y278574D01*
X242712Y278576D01*
X242780Y278600D01*
X242850Y278615D01*
X242895Y278642D01*
X242943Y278660D01*
X242999Y278705D01*
X243061Y278742D01*
X243095Y278781D01*
X243135Y278814D01*
X243174Y278874D01*
X243221Y278928D01*
X243240Y278977D01*
X243268Y279021D01*
X243286Y279090D01*
X243313Y279157D01*
X243321Y279228D01*
X243329Y279259D01*
X243327Y279282D01*
X243331Y279323D01*
X243331Y297842D01*
X244955Y301763D01*
X247957Y304765D01*
X251878Y306389D01*
X256122Y306389D01*
X260043Y304765D01*
X263045Y301763D01*
X264669Y297842D01*
X264669Y278358D01*
X263045Y274437D01*
X260043Y271435D01*
X256122Y269811D01*
X252843Y269811D01*
X252773Y269800D01*
X252701Y269798D01*
X252652Y269780D01*
X252601Y269772D01*
X252537Y269738D01*
X252470Y269713D01*
X252429Y269681D01*
X252383Y269656D01*
X252334Y269604D01*
X252278Y269560D01*
X252250Y269516D01*
X252214Y269478D01*
X252184Y269413D01*
X252145Y269353D01*
X252132Y269302D01*
X252110Y269255D01*
X252102Y269184D01*
X252085Y269114D01*
X252089Y269062D01*
X252083Y269011D01*
X252098Y268940D01*
X252104Y268869D01*
X252124Y268821D01*
X252135Y268770D01*
X252172Y268709D01*
X252200Y268643D01*
X252245Y268587D01*
X252262Y268559D01*
X252279Y268544D01*
X252305Y268512D01*
X364538Y156279D01*
X364612Y156226D01*
X364682Y156166D01*
X364712Y156154D01*
X364738Y156135D01*
X364825Y156108D01*
X364910Y156074D01*
X364951Y156070D01*
X364973Y156063D01*
X365005Y156064D01*
X365076Y156056D01*
X366484Y156056D01*
X368994Y155016D01*
X370916Y153094D01*
X371956Y150584D01*
X371956Y147866D01*
X370916Y145356D01*
X368994Y143434D01*
X366484Y142394D01*
X363766Y142394D01*
G37*
%LPD*%
%LPC*%
G36*
X150278Y269811D02*
X150278Y269811D01*
X146357Y271435D01*
X143355Y274437D01*
X141731Y278358D01*
X141731Y297842D01*
X143355Y301763D01*
X146357Y304765D01*
X150278Y306389D01*
X154522Y306389D01*
X158443Y304765D01*
X161445Y301763D01*
X163069Y297842D01*
X163069Y278358D01*
X161445Y274437D01*
X158443Y271435D01*
X154522Y269811D01*
X150278Y269811D01*
G37*
%LPD*%
%LPC*%
G36*
X124878Y269811D02*
X124878Y269811D01*
X120957Y271435D01*
X117955Y274437D01*
X116331Y278358D01*
X116331Y297842D01*
X117955Y301763D01*
X120957Y304765D01*
X124878Y306389D01*
X129122Y306389D01*
X133043Y304765D01*
X136045Y301763D01*
X137669Y297842D01*
X137669Y278358D01*
X136045Y274437D01*
X133043Y271435D01*
X129122Y269811D01*
X124878Y269811D01*
G37*
%LPD*%
%LPC*%
G36*
X48678Y269811D02*
X48678Y269811D01*
X44757Y271435D01*
X41755Y274437D01*
X40131Y278358D01*
X40131Y297842D01*
X41755Y301763D01*
X44757Y304765D01*
X48678Y306389D01*
X52922Y306389D01*
X56843Y304765D01*
X59845Y301763D01*
X61469Y297842D01*
X61469Y278358D01*
X59845Y274437D01*
X56843Y271435D01*
X52922Y269811D01*
X48678Y269811D01*
G37*
%LPD*%
%LPC*%
G36*
X99478Y269811D02*
X99478Y269811D01*
X95557Y271435D01*
X92555Y274437D01*
X90931Y278358D01*
X90931Y297842D01*
X92555Y301763D01*
X95557Y304765D01*
X99478Y306389D01*
X103722Y306389D01*
X107643Y304765D01*
X110645Y301763D01*
X112269Y297842D01*
X112269Y278358D01*
X110645Y274437D01*
X107643Y271435D01*
X103722Y269811D01*
X99478Y269811D01*
G37*
%LPD*%
%LPC*%
G36*
X404278Y269811D02*
X404278Y269811D01*
X400357Y271435D01*
X397355Y274437D01*
X395731Y278358D01*
X395731Y297842D01*
X397355Y301763D01*
X400357Y304765D01*
X404278Y306389D01*
X408522Y306389D01*
X412443Y304765D01*
X415445Y301763D01*
X417069Y297842D01*
X417069Y278358D01*
X415445Y274437D01*
X412443Y271435D01*
X408522Y269811D01*
X404278Y269811D01*
G37*
%LPD*%
%LPC*%
G36*
X302678Y19811D02*
X302678Y19811D01*
X298757Y21435D01*
X295755Y24437D01*
X294131Y28358D01*
X294131Y47842D01*
X295755Y51763D01*
X298757Y54765D01*
X302678Y56389D01*
X306922Y56389D01*
X310843Y54765D01*
X313845Y51763D01*
X315469Y47842D01*
X315469Y28358D01*
X313845Y24437D01*
X310843Y21435D01*
X306922Y19811D01*
X302678Y19811D01*
G37*
%LPD*%
%LPC*%
G36*
X404278Y19811D02*
X404278Y19811D01*
X400357Y21435D01*
X397355Y24437D01*
X395731Y28358D01*
X395731Y47842D01*
X397355Y51763D01*
X400357Y54765D01*
X404278Y56389D01*
X408522Y56389D01*
X412443Y54765D01*
X415445Y51763D01*
X417069Y47842D01*
X417069Y28358D01*
X415445Y24437D01*
X412443Y21435D01*
X408522Y19811D01*
X404278Y19811D01*
G37*
%LPD*%
%LPC*%
G36*
X328078Y19811D02*
X328078Y19811D01*
X324157Y21435D01*
X321155Y24437D01*
X319531Y28358D01*
X319531Y47842D01*
X321155Y51763D01*
X324157Y54765D01*
X328078Y56389D01*
X332322Y56389D01*
X336243Y54765D01*
X339245Y51763D01*
X340869Y47842D01*
X340869Y28358D01*
X339245Y24437D01*
X336243Y21435D01*
X332322Y19811D01*
X328078Y19811D01*
G37*
%LPD*%
%LPC*%
G36*
X353478Y19811D02*
X353478Y19811D01*
X349557Y21435D01*
X346555Y24437D01*
X344931Y28358D01*
X344931Y47842D01*
X346555Y51763D01*
X349557Y54765D01*
X353478Y56389D01*
X357722Y56389D01*
X361643Y54765D01*
X364645Y51763D01*
X366269Y47842D01*
X366269Y28358D01*
X364645Y24437D01*
X361643Y21435D01*
X357722Y19811D01*
X353478Y19811D01*
G37*
%LPD*%
%LPC*%
G36*
X378878Y19811D02*
X378878Y19811D01*
X374957Y21435D01*
X371955Y24437D01*
X370331Y28358D01*
X370331Y47842D01*
X371955Y51763D01*
X374957Y54765D01*
X378878Y56389D01*
X383122Y56389D01*
X387043Y54765D01*
X390045Y51763D01*
X391669Y47842D01*
X391669Y28358D01*
X390045Y24437D01*
X387043Y21435D01*
X383122Y19811D01*
X378878Y19811D01*
G37*
%LPD*%
%LPC*%
G36*
X277278Y19811D02*
X277278Y19811D01*
X273357Y21435D01*
X270355Y24437D01*
X268731Y28358D01*
X268731Y47842D01*
X270355Y51763D01*
X273357Y54765D01*
X277278Y56389D01*
X281522Y56389D01*
X285443Y54765D01*
X288445Y51763D01*
X290069Y47842D01*
X290069Y28358D01*
X288445Y24437D01*
X285443Y21435D01*
X281522Y19811D01*
X277278Y19811D01*
G37*
%LPD*%
%LPC*%
G36*
X251878Y19811D02*
X251878Y19811D01*
X247957Y21435D01*
X244955Y24437D01*
X243331Y28358D01*
X243331Y47842D01*
X244955Y51763D01*
X247957Y54765D01*
X251878Y56389D01*
X256122Y56389D01*
X260043Y54765D01*
X263045Y51763D01*
X264669Y47842D01*
X264669Y28358D01*
X263045Y24437D01*
X260043Y21435D01*
X256122Y19811D01*
X251878Y19811D01*
G37*
%LPD*%
%LPC*%
G36*
X226478Y19811D02*
X226478Y19811D01*
X222557Y21435D01*
X219555Y24437D01*
X217931Y28358D01*
X217931Y47842D01*
X219555Y51763D01*
X222557Y54765D01*
X226478Y56389D01*
X230722Y56389D01*
X234643Y54765D01*
X237645Y51763D01*
X239269Y47842D01*
X239269Y28358D01*
X237645Y24437D01*
X234643Y21435D01*
X230722Y19811D01*
X226478Y19811D01*
G37*
%LPD*%
%LPC*%
G36*
X150278Y19811D02*
X150278Y19811D01*
X146357Y21435D01*
X143355Y24437D01*
X141731Y28358D01*
X141731Y47842D01*
X143355Y51763D01*
X146357Y54765D01*
X150278Y56389D01*
X154522Y56389D01*
X158443Y54765D01*
X161445Y51763D01*
X163069Y47842D01*
X163069Y28358D01*
X161445Y24437D01*
X158443Y21435D01*
X154522Y19811D01*
X150278Y19811D01*
G37*
%LPD*%
%LPC*%
G36*
X124878Y19811D02*
X124878Y19811D01*
X120957Y21435D01*
X117955Y24437D01*
X116331Y28358D01*
X116331Y47842D01*
X117955Y51763D01*
X120957Y54765D01*
X124878Y56389D01*
X129122Y56389D01*
X133043Y54765D01*
X136045Y51763D01*
X137669Y47842D01*
X137669Y28358D01*
X136045Y24437D01*
X133043Y21435D01*
X129122Y19811D01*
X124878Y19811D01*
G37*
%LPD*%
%LPC*%
G36*
X99478Y19811D02*
X99478Y19811D01*
X95557Y21435D01*
X92555Y24437D01*
X90931Y28358D01*
X90931Y47842D01*
X92555Y51763D01*
X95557Y54765D01*
X99478Y56389D01*
X103722Y56389D01*
X107643Y54765D01*
X110645Y51763D01*
X112269Y47842D01*
X112269Y28358D01*
X110645Y24437D01*
X107643Y21435D01*
X103722Y19811D01*
X99478Y19811D01*
G37*
%LPD*%
%LPC*%
G36*
X48678Y19811D02*
X48678Y19811D01*
X44757Y21435D01*
X41755Y24437D01*
X40131Y28358D01*
X40131Y47842D01*
X41755Y51763D01*
X44757Y54765D01*
X48678Y56389D01*
X52922Y56389D01*
X56843Y54765D01*
X59845Y51763D01*
X61469Y47842D01*
X61469Y28358D01*
X59845Y24437D01*
X56843Y21435D01*
X52922Y19811D01*
X48678Y19811D01*
G37*
%LPD*%
%LPC*%
G36*
X465981Y265331D02*
X465981Y265331D01*
X459731Y271581D01*
X459731Y280419D01*
X465981Y286669D01*
X474819Y286669D01*
X481069Y280419D01*
X481069Y271581D01*
X474819Y265331D01*
X465981Y265331D01*
G37*
%LPD*%
%LPC*%
G36*
X77723Y289623D02*
X77723Y289623D01*
X77723Y305766D01*
X78579Y305631D01*
X80100Y305136D01*
X81525Y304410D01*
X82819Y303470D01*
X83950Y302339D01*
X84890Y301045D01*
X85616Y299620D01*
X86111Y298099D01*
X86361Y296520D01*
X86361Y289623D01*
X77723Y289623D01*
G37*
%LPD*%
%LPC*%
G36*
X77723Y39623D02*
X77723Y39623D01*
X77723Y55766D01*
X78579Y55631D01*
X80100Y55136D01*
X81525Y54410D01*
X82819Y53470D01*
X83950Y52339D01*
X84890Y51045D01*
X85616Y49620D01*
X86111Y48099D01*
X86361Y46520D01*
X86361Y39623D01*
X77723Y39623D01*
G37*
%LPD*%
%LPC*%
G36*
X77723Y286577D02*
X77723Y286577D01*
X86361Y286577D01*
X86361Y279680D01*
X86111Y278101D01*
X85616Y276580D01*
X84890Y275155D01*
X83950Y273861D01*
X82819Y272730D01*
X81525Y271790D01*
X80100Y271064D01*
X78579Y270569D01*
X77723Y270434D01*
X77723Y286577D01*
G37*
%LPD*%
%LPC*%
G36*
X77723Y36577D02*
X77723Y36577D01*
X86361Y36577D01*
X86361Y29680D01*
X86111Y28101D01*
X85616Y26580D01*
X84890Y25155D01*
X83950Y23861D01*
X82819Y22730D01*
X81525Y21790D01*
X80100Y21064D01*
X78579Y20569D01*
X77723Y20434D01*
X77723Y36577D01*
G37*
%LPD*%
%LPC*%
G36*
X66039Y289623D02*
X66039Y289623D01*
X66039Y296520D01*
X66289Y298099D01*
X66784Y299620D01*
X67510Y301045D01*
X68450Y302339D01*
X69581Y303470D01*
X70875Y304410D01*
X72300Y305136D01*
X73821Y305631D01*
X74677Y305766D01*
X74677Y289623D01*
X66039Y289623D01*
G37*
%LPD*%
%LPC*%
G36*
X66039Y39623D02*
X66039Y39623D01*
X66039Y46520D01*
X66289Y48099D01*
X66784Y49620D01*
X67510Y51045D01*
X68450Y52339D01*
X69581Y53470D01*
X70875Y54410D01*
X72300Y55136D01*
X73821Y55631D01*
X74677Y55766D01*
X74677Y39623D01*
X66039Y39623D01*
G37*
%LPD*%
%LPC*%
G36*
X73821Y270569D02*
X73821Y270569D01*
X72300Y271064D01*
X70875Y271790D01*
X69581Y272730D01*
X68450Y273861D01*
X67510Y275155D01*
X66784Y276580D01*
X66289Y278101D01*
X66039Y279680D01*
X66039Y286577D01*
X74677Y286577D01*
X74677Y270434D01*
X73821Y270569D01*
G37*
%LPD*%
%LPC*%
G36*
X73821Y20569D02*
X73821Y20569D01*
X72300Y21064D01*
X70875Y21790D01*
X69581Y22730D01*
X68450Y23861D01*
X67510Y25155D01*
X66784Y26580D01*
X66289Y28101D01*
X66039Y29680D01*
X66039Y36577D01*
X74677Y36577D01*
X74677Y20434D01*
X73821Y20569D01*
G37*
%LPD*%
%LPC*%
G36*
X497323Y277523D02*
X497323Y277523D01*
X497323Y286161D01*
X500009Y286161D01*
X505961Y280209D01*
X505961Y277523D01*
X497323Y277523D01*
G37*
%LPD*%
%LPC*%
G36*
X497323Y274477D02*
X497323Y274477D01*
X505961Y274477D01*
X505961Y271791D01*
X500009Y265839D01*
X497323Y265839D01*
X497323Y274477D01*
G37*
%LPD*%
%LPC*%
G36*
X485639Y277523D02*
X485639Y277523D01*
X485639Y280209D01*
X491591Y286161D01*
X494277Y286161D01*
X494277Y277523D01*
X485639Y277523D01*
G37*
%LPD*%
%LPC*%
G36*
X491591Y265839D02*
X491591Y265839D01*
X485639Y271791D01*
X485639Y274477D01*
X494277Y274477D01*
X494277Y265839D01*
X491591Y265839D01*
G37*
%LPD*%
%LPC*%
G36*
X495799Y275999D02*
X495799Y275999D01*
X495799Y276001D01*
X495801Y276001D01*
X495801Y275999D01*
X495799Y275999D01*
G37*
%LPD*%
%LPC*%
G36*
X76199Y38099D02*
X76199Y38099D01*
X76199Y38101D01*
X76201Y38101D01*
X76201Y38099D01*
X76199Y38099D01*
G37*
%LPD*%
%LPC*%
G36*
X76199Y288099D02*
X76199Y288099D01*
X76199Y288101D01*
X76201Y288101D01*
X76201Y288099D01*
X76199Y288099D01*
G37*
%LPD*%
D10*
X470400Y276000D03*
X495800Y276000D03*
X470400Y250600D03*
X495800Y250600D03*
X470400Y225200D03*
X495800Y225200D03*
X470400Y199800D03*
X495800Y199800D03*
X470400Y174400D03*
X495800Y174400D03*
X470400Y149000D03*
X495800Y149000D03*
X470400Y123600D03*
X495800Y123600D03*
X470400Y98200D03*
X495800Y98200D03*
X470400Y72800D03*
X495800Y72800D03*
X470400Y47400D03*
X495800Y47400D03*
D11*
X50800Y280480D02*
X50800Y295720D01*
X76200Y295720D02*
X76200Y280480D01*
X101600Y280480D02*
X101600Y295720D01*
X127000Y295720D02*
X127000Y280480D01*
X152400Y280480D02*
X152400Y295720D01*
X177800Y295720D02*
X177800Y280480D01*
X203200Y280480D02*
X203200Y295720D01*
X228600Y295720D02*
X228600Y280480D01*
X254000Y280480D02*
X254000Y295720D01*
X279400Y295720D02*
X279400Y280480D01*
X304800Y280480D02*
X304800Y295720D01*
X330200Y295720D02*
X330200Y280480D01*
X355600Y280480D02*
X355600Y295720D01*
X381000Y295720D02*
X381000Y280480D01*
X406400Y280480D02*
X406400Y295720D01*
X50800Y45720D02*
X50800Y30480D01*
X76200Y30480D02*
X76200Y45720D01*
X101600Y45720D02*
X101600Y30480D01*
X127000Y30480D02*
X127000Y45720D01*
X152400Y45720D02*
X152400Y30480D01*
X177800Y30480D02*
X177800Y45720D01*
X203200Y45720D02*
X203200Y30480D01*
X228600Y30480D02*
X228600Y45720D01*
X254000Y45720D02*
X254000Y30480D01*
X279400Y30480D02*
X279400Y45720D01*
X304800Y45720D02*
X304800Y30480D01*
X330200Y30480D02*
X330200Y45720D01*
X355600Y45720D02*
X355600Y30480D01*
X381000Y30480D02*
X381000Y45720D01*
X406400Y45720D02*
X406400Y30480D01*
D12*
X274700Y135000D02*
X177800Y38100D01*
X274700Y135000D02*
X390000Y135000D01*
X500850Y84992D02*
X507992Y77850D01*
X411679Y113321D02*
X390000Y135000D01*
X411679Y113321D02*
X411679Y80258D01*
X463108Y28829D01*
X494471Y28829D01*
X507992Y42350D01*
X507992Y77850D01*
X500850Y84992D02*
X490750Y84992D01*
X483608Y92134D01*
X483608Y238408D02*
X495800Y250600D01*
X483608Y238408D02*
X483608Y92134D01*
X76200Y38100D02*
X76200Y288100D01*
X438150Y215900D02*
X469900Y247650D01*
X470400Y250600D01*
D13*
X438150Y215900D03*
D12*
X263525Y200025D02*
X177800Y285750D01*
X177800Y288100D01*
D13*
X263525Y200025D03*
D12*
X314325Y174625D02*
X203200Y285750D01*
X203200Y288100D01*
D13*
X314325Y174625D03*
D12*
X365125Y149225D02*
X228600Y285750D01*
X228600Y288100D01*
D13*
X365125Y149225D03*
D12*
X431800Y136525D02*
X469900Y98425D01*
X431800Y136525D02*
X431800Y209550D01*
X368300Y273050D01*
X368300Y301625D01*
X361950Y307975D01*
X279400Y307975D01*
X279400Y288100D01*
X469900Y98425D02*
X470400Y98200D01*
X473075Y69850D02*
X482600Y60325D01*
X482600Y41275D01*
X478163Y36838D02*
X476250Y34925D01*
X478163Y36838D02*
X482600Y41275D01*
X417775Y172775D02*
X304800Y285750D01*
X417775Y172775D02*
X419100Y171450D01*
X470400Y72800D02*
X473075Y69850D01*
X304800Y285750D02*
X304800Y288100D01*
X465350Y35208D02*
X475450Y35208D01*
X477080Y36838D01*
X478163Y36838D01*
X465350Y35208D02*
X417775Y82783D01*
X417775Y172775D01*
X425450Y92075D02*
X469900Y47625D01*
X425450Y92075D02*
X425450Y190500D01*
X330200Y285750D01*
X469900Y47625D02*
X470400Y47400D01*
X330200Y285750D02*
X330200Y288100D01*
M02*
