G04 EAGLE Gerber RS-274X export*
G75*
%MOMM*%
%FSLAX34Y34*%
%LPD*%
%INTop Copper*%
%IPPOS*%
%AMOC8*
5,1,8,0,0,1.08239X$1,22.5*%
G01*
%ADD10P,1.649562X8X292.500000*%
%ADD11C,1.524000*%
%ADD12C,0.304800*%
%ADD13C,0.756400*%


D10*
X470400Y276000D03*
X495800Y276000D03*
X470400Y250600D03*
X495800Y250600D03*
X470400Y225200D03*
X495800Y225200D03*
X470400Y199800D03*
X495800Y199800D03*
X470400Y174400D03*
X495800Y174400D03*
X470400Y149000D03*
X495800Y149000D03*
X470400Y123600D03*
X495800Y123600D03*
X470400Y98200D03*
X495800Y98200D03*
X470400Y72800D03*
X495800Y72800D03*
X470400Y47400D03*
X495800Y47400D03*
D11*
X50800Y280480D02*
X50800Y295720D01*
X76200Y295720D02*
X76200Y280480D01*
X101600Y280480D02*
X101600Y295720D01*
X127000Y295720D02*
X127000Y280480D01*
X152400Y280480D02*
X152400Y295720D01*
X177800Y295720D02*
X177800Y280480D01*
X203200Y280480D02*
X203200Y295720D01*
X228600Y295720D02*
X228600Y280480D01*
X254000Y280480D02*
X254000Y295720D01*
X279400Y295720D02*
X279400Y280480D01*
X304800Y280480D02*
X304800Y295720D01*
X330200Y295720D02*
X330200Y280480D01*
X355600Y280480D02*
X355600Y295720D01*
X381000Y295720D02*
X381000Y280480D01*
X406400Y280480D02*
X406400Y295720D01*
X50800Y45720D02*
X50800Y30480D01*
X76200Y30480D02*
X76200Y45720D01*
X101600Y45720D02*
X101600Y30480D01*
X127000Y30480D02*
X127000Y45720D01*
X152400Y45720D02*
X152400Y30480D01*
X177800Y30480D02*
X177800Y45720D01*
X203200Y45720D02*
X203200Y30480D01*
X228600Y30480D02*
X228600Y45720D01*
X254000Y45720D02*
X254000Y30480D01*
X279400Y30480D02*
X279400Y45720D01*
X304800Y45720D02*
X304800Y30480D01*
X330200Y30480D02*
X330200Y45720D01*
X355600Y45720D02*
X355600Y30480D01*
X381000Y30480D02*
X381000Y45720D01*
X406400Y45720D02*
X406400Y30480D01*
D12*
X200025Y15875D02*
X177800Y38100D01*
X200025Y15875D02*
X508000Y15875D01*
X508000Y238125D01*
X498475Y247650D01*
X495800Y250600D01*
X76200Y288100D02*
X76200Y38100D01*
X438150Y215900D02*
X469900Y247650D01*
X470400Y250600D01*
D13*
X438150Y215900D03*
D12*
X263525Y200025D02*
X177800Y285750D01*
X177800Y288100D01*
D13*
X263525Y200025D03*
D12*
X314325Y174625D02*
X203200Y285750D01*
X203200Y288100D01*
D13*
X314325Y174625D03*
D12*
X365125Y149225D02*
X228600Y285750D01*
X228600Y288100D01*
D13*
X365125Y149225D03*
D12*
X431800Y136525D02*
X469900Y98425D01*
X431800Y136525D02*
X431800Y209550D01*
X368300Y273050D01*
X368300Y301625D01*
X361950Y307975D01*
X279400Y307975D01*
X279400Y288100D01*
X469900Y98425D02*
X470400Y98200D01*
X473075Y69850D02*
X482600Y60325D01*
X482600Y41275D01*
X476250Y34925D01*
X419100Y34925D01*
X419100Y171450D01*
X304800Y285750D01*
X470400Y72800D02*
X473075Y69850D01*
X304800Y285750D02*
X304800Y288100D01*
X425450Y92075D02*
X469900Y47625D01*
X425450Y92075D02*
X425450Y190500D01*
X330200Y285750D01*
X469900Y47625D02*
X470400Y47400D01*
X330200Y285750D02*
X330200Y288100D01*
M02*
