G04 EAGLE Gerber RS-274X export*
G75*
%MOMM*%
%FSLAX34Y34*%
%LPD*%
%INBottom Copper*%
%IPPOS*%
%AMOC8*
5,1,8,0,0,1.08239X$1,22.5*%
G01*
%ADD10P,1.649562X8X292.500000*%
%ADD11C,1.524000*%
%ADD12C,0.304800*%
%ADD13C,0.756400*%


D10*
X470400Y276000D03*
X495800Y276000D03*
X470400Y250600D03*
X495800Y250600D03*
X470400Y225200D03*
X495800Y225200D03*
X470400Y199800D03*
X495800Y199800D03*
X470400Y174400D03*
X495800Y174400D03*
X470400Y149000D03*
X495800Y149000D03*
X470400Y123600D03*
X495800Y123600D03*
X470400Y98200D03*
X495800Y98200D03*
X470400Y72800D03*
X495800Y72800D03*
X470400Y47400D03*
X495800Y47400D03*
D11*
X50800Y280480D02*
X50800Y295720D01*
X76200Y295720D02*
X76200Y280480D01*
X101600Y280480D02*
X101600Y295720D01*
X127000Y295720D02*
X127000Y280480D01*
X152400Y280480D02*
X152400Y295720D01*
X177800Y295720D02*
X177800Y280480D01*
X203200Y280480D02*
X203200Y295720D01*
X228600Y295720D02*
X228600Y280480D01*
X254000Y280480D02*
X254000Y295720D01*
X279400Y295720D02*
X279400Y280480D01*
X304800Y280480D02*
X304800Y295720D01*
X330200Y295720D02*
X330200Y280480D01*
X355600Y280480D02*
X355600Y295720D01*
X381000Y295720D02*
X381000Y280480D01*
X406400Y280480D02*
X406400Y295720D01*
X50800Y45720D02*
X50800Y30480D01*
X76200Y30480D02*
X76200Y45720D01*
X101600Y45720D02*
X101600Y30480D01*
X127000Y30480D02*
X127000Y45720D01*
X152400Y45720D02*
X152400Y30480D01*
X177800Y30480D02*
X177800Y45720D01*
X203200Y45720D02*
X203200Y30480D01*
X228600Y30480D02*
X228600Y45720D01*
X254000Y45720D02*
X254000Y30480D01*
X279400Y30480D02*
X279400Y45720D01*
X304800Y45720D02*
X304800Y30480D01*
X330200Y30480D02*
X330200Y45720D01*
X355600Y45720D02*
X355600Y30480D01*
X381000Y30480D02*
X381000Y45720D01*
X406400Y45720D02*
X406400Y30480D01*
D12*
X225425Y15875D02*
X203200Y38100D01*
X225425Y15875D02*
X482600Y15875D01*
X514350Y47625D01*
X514350Y222250D01*
X498475Y222250D01*
X495800Y225200D01*
X254000Y187325D02*
X254000Y38100D01*
X254000Y187325D02*
X485775Y187325D01*
X495300Y196850D01*
X495800Y199800D01*
X279400Y53975D02*
X279400Y38100D01*
X279400Y53975D02*
X355600Y130175D01*
X355600Y161925D01*
X485775Y161925D01*
X495300Y171450D01*
X495800Y174400D01*
X403225Y136525D02*
X304800Y38100D01*
X403225Y136525D02*
X476250Y136525D01*
X485775Y146050D01*
X495300Y146050D01*
X495800Y149000D01*
X403225Y111125D02*
X330200Y38100D01*
X403225Y111125D02*
X485775Y111125D01*
X495300Y120650D01*
X495800Y123600D01*
X403225Y85725D02*
X355600Y38100D01*
X403225Y85725D02*
X485775Y85725D01*
X495300Y95250D01*
X495800Y98200D01*
X403225Y60325D02*
X381000Y38100D01*
X403225Y60325D02*
X485775Y60325D01*
X495300Y69850D01*
X495800Y72800D01*
X409575Y34925D02*
X406400Y38100D01*
X409575Y34925D02*
X485775Y34925D01*
X495300Y44450D01*
X495800Y47400D01*
X495300Y276225D02*
X463550Y307975D01*
X95250Y307975D01*
X76200Y288925D01*
X495300Y276225D02*
X495800Y276000D01*
X76200Y288100D02*
X76200Y288925D01*
X101600Y285750D02*
X171450Y215900D01*
X438150Y215900D01*
X101600Y285750D02*
X101600Y288100D01*
D13*
X438150Y215900D03*
D12*
X212725Y225425D02*
X152400Y285750D01*
X212725Y225425D02*
X469900Y225425D01*
X152400Y285750D02*
X152400Y288100D01*
X469900Y225425D02*
X470400Y225200D01*
X469900Y200025D02*
X263525Y200025D01*
X469900Y200025D02*
X470400Y199800D01*
D13*
X263525Y200025D03*
D12*
X314325Y174625D02*
X469900Y174625D01*
X470400Y174400D01*
D13*
X314325Y174625D03*
D12*
X365125Y149225D02*
X469900Y149225D01*
X470400Y149000D01*
D13*
X365125Y149225D03*
D12*
X276225Y263525D02*
X254000Y285750D01*
X276225Y263525D02*
X476250Y263525D01*
X482600Y257175D01*
X482600Y212725D01*
X501650Y212725D01*
X508000Y206375D01*
X508000Y136525D01*
X485775Y136525D01*
X473075Y123825D01*
X254000Y285750D02*
X254000Y288100D01*
X470400Y123600D02*
X473075Y123825D01*
M02*
