G04 EAGLE Gerber RS-274X export*
G75*
%MOMM*%
%FSLAX34Y34*%
%LPD*%
%INEAGLE Copper Layer 15*%
%IPPOS*%
%AMOC8*
5,1,8,0,0,1.08239X$1,22.5*%
G01*
%ADD10C,1.524000*%
%ADD11C,0.756400*%

G36*
X521398Y10164D02*
X521398Y10164D01*
X521417Y10162D01*
X521519Y10184D01*
X521621Y10200D01*
X521638Y10210D01*
X521658Y10214D01*
X521747Y10267D01*
X521838Y10316D01*
X521852Y10330D01*
X521869Y10340D01*
X521936Y10419D01*
X522008Y10494D01*
X522016Y10512D01*
X522029Y10527D01*
X522068Y10623D01*
X522111Y10717D01*
X522113Y10737D01*
X522121Y10755D01*
X522139Y10922D01*
X522139Y313622D01*
X522125Y313712D01*
X522117Y313803D01*
X522105Y313833D01*
X522100Y313865D01*
X522057Y313945D01*
X522021Y314029D01*
X521995Y314061D01*
X521984Y314082D01*
X521961Y314104D01*
X521916Y314160D01*
X521560Y314516D01*
X521486Y314569D01*
X521417Y314629D01*
X521387Y314641D01*
X521361Y314660D01*
X521274Y314687D01*
X521189Y314721D01*
X521148Y314725D01*
X521125Y314732D01*
X521093Y314731D01*
X521022Y314739D01*
X10922Y314739D01*
X10902Y314736D01*
X10883Y314738D01*
X10781Y314716D01*
X10679Y314700D01*
X10662Y314690D01*
X10642Y314686D01*
X10553Y314633D01*
X10462Y314584D01*
X10448Y314570D01*
X10431Y314560D01*
X10364Y314481D01*
X10292Y314406D01*
X10284Y314388D01*
X10271Y314373D01*
X10232Y314277D01*
X10189Y314183D01*
X10187Y314163D01*
X10179Y314145D01*
X10161Y313978D01*
X10161Y10922D01*
X10164Y10902D01*
X10162Y10883D01*
X10184Y10781D01*
X10200Y10679D01*
X10210Y10662D01*
X10214Y10642D01*
X10267Y10553D01*
X10316Y10462D01*
X10330Y10448D01*
X10340Y10431D01*
X10419Y10364D01*
X10494Y10292D01*
X10512Y10284D01*
X10527Y10271D01*
X10623Y10232D01*
X10717Y10189D01*
X10737Y10187D01*
X10755Y10179D01*
X10922Y10161D01*
X521378Y10161D01*
X521398Y10164D01*
G37*
%LPC*%
G36*
X353478Y277431D02*
X353478Y277431D01*
X349557Y279055D01*
X346555Y282057D01*
X344931Y285978D01*
X344931Y290222D01*
X346555Y294143D01*
X349557Y297145D01*
X353478Y298769D01*
X357722Y298769D01*
X361643Y297145D01*
X364645Y294143D01*
X366269Y290222D01*
X366269Y285978D01*
X364645Y282057D01*
X361643Y279055D01*
X357722Y277431D01*
X353478Y277431D01*
G37*
%LPD*%
%LPC*%
G36*
X328078Y277431D02*
X328078Y277431D01*
X324157Y279055D01*
X321155Y282057D01*
X319531Y285978D01*
X319531Y290222D01*
X321155Y294143D01*
X324157Y297145D01*
X328078Y298769D01*
X332322Y298769D01*
X336243Y297145D01*
X339245Y294143D01*
X340869Y290222D01*
X340869Y285978D01*
X339245Y282057D01*
X336243Y279055D01*
X332322Y277431D01*
X328078Y277431D01*
G37*
%LPD*%
%LPC*%
G36*
X404278Y277431D02*
X404278Y277431D01*
X400357Y279055D01*
X397355Y282057D01*
X395731Y285978D01*
X395731Y290222D01*
X397355Y294143D01*
X400357Y297145D01*
X404278Y298769D01*
X408522Y298769D01*
X412443Y297145D01*
X415445Y294143D01*
X417069Y290222D01*
X417069Y285978D01*
X415445Y282057D01*
X412443Y279055D01*
X408522Y277431D01*
X404278Y277431D01*
G37*
%LPD*%
%LPC*%
G36*
X378878Y277431D02*
X378878Y277431D01*
X374957Y279055D01*
X371955Y282057D01*
X370331Y285978D01*
X370331Y290222D01*
X371955Y294143D01*
X374957Y297145D01*
X378878Y298769D01*
X383122Y298769D01*
X387043Y297145D01*
X390045Y294143D01*
X391669Y290222D01*
X391669Y285978D01*
X390045Y282057D01*
X387043Y279055D01*
X383122Y277431D01*
X378878Y277431D01*
G37*
%LPD*%
%LPC*%
G36*
X175678Y277431D02*
X175678Y277431D01*
X171757Y279055D01*
X168755Y282057D01*
X167131Y285978D01*
X167131Y290222D01*
X168755Y294143D01*
X171757Y297145D01*
X175678Y298769D01*
X179922Y298769D01*
X183843Y297145D01*
X186845Y294143D01*
X188469Y290222D01*
X188469Y285978D01*
X186845Y282057D01*
X183843Y279055D01*
X179922Y277431D01*
X175678Y277431D01*
G37*
%LPD*%
%LPC*%
G36*
X150278Y277431D02*
X150278Y277431D01*
X146357Y279055D01*
X143355Y282057D01*
X141731Y285978D01*
X141731Y290222D01*
X143355Y294143D01*
X146357Y297145D01*
X150278Y298769D01*
X154522Y298769D01*
X158443Y297145D01*
X161445Y294143D01*
X163069Y290222D01*
X163069Y285978D01*
X161445Y282057D01*
X158443Y279055D01*
X154522Y277431D01*
X150278Y277431D01*
G37*
%LPD*%
%LPC*%
G36*
X302678Y277431D02*
X302678Y277431D01*
X298757Y279055D01*
X295755Y282057D01*
X294131Y285978D01*
X294131Y290222D01*
X295755Y294143D01*
X298757Y297145D01*
X302678Y298769D01*
X306922Y298769D01*
X310843Y297145D01*
X313845Y294143D01*
X315469Y290222D01*
X315469Y285978D01*
X313845Y282057D01*
X310843Y279055D01*
X306922Y277431D01*
X302678Y277431D01*
G37*
%LPD*%
%LPC*%
G36*
X277278Y277431D02*
X277278Y277431D01*
X273357Y279055D01*
X270355Y282057D01*
X268731Y285978D01*
X268731Y290222D01*
X270355Y294143D01*
X273357Y297145D01*
X277278Y298769D01*
X281522Y298769D01*
X285443Y297145D01*
X288445Y294143D01*
X290069Y290222D01*
X290069Y285978D01*
X288445Y282057D01*
X285443Y279055D01*
X281522Y277431D01*
X277278Y277431D01*
G37*
%LPD*%
%LPC*%
G36*
X251878Y277431D02*
X251878Y277431D01*
X247957Y279055D01*
X244955Y282057D01*
X243331Y285978D01*
X243331Y290222D01*
X244955Y294143D01*
X247957Y297145D01*
X251878Y298769D01*
X256122Y298769D01*
X260043Y297145D01*
X263045Y294143D01*
X264669Y290222D01*
X264669Y285978D01*
X263045Y282057D01*
X260043Y279055D01*
X256122Y277431D01*
X251878Y277431D01*
G37*
%LPD*%
%LPC*%
G36*
X226478Y277431D02*
X226478Y277431D01*
X222557Y279055D01*
X219555Y282057D01*
X217931Y285978D01*
X217931Y290222D01*
X219555Y294143D01*
X222557Y297145D01*
X226478Y298769D01*
X230722Y298769D01*
X234643Y297145D01*
X237645Y294143D01*
X239269Y290222D01*
X239269Y285978D01*
X237645Y282057D01*
X234643Y279055D01*
X230722Y277431D01*
X226478Y277431D01*
G37*
%LPD*%
%LPC*%
G36*
X201078Y277431D02*
X201078Y277431D01*
X197157Y279055D01*
X194155Y282057D01*
X192531Y285978D01*
X192531Y290222D01*
X194155Y294143D01*
X197157Y297145D01*
X201078Y298769D01*
X205322Y298769D01*
X209243Y297145D01*
X212245Y294143D01*
X213869Y290222D01*
X213869Y285978D01*
X212245Y282057D01*
X209243Y279055D01*
X205322Y277431D01*
X201078Y277431D01*
G37*
%LPD*%
%LPC*%
G36*
X124878Y277431D02*
X124878Y277431D01*
X120957Y279055D01*
X117955Y282057D01*
X116331Y285978D01*
X116331Y290222D01*
X117955Y294143D01*
X120957Y297145D01*
X124878Y298769D01*
X129122Y298769D01*
X133043Y297145D01*
X136045Y294143D01*
X137669Y290222D01*
X137669Y285978D01*
X136045Y282057D01*
X133043Y279055D01*
X129122Y277431D01*
X124878Y277431D01*
G37*
%LPD*%
%LPC*%
G36*
X99478Y277431D02*
X99478Y277431D01*
X95557Y279055D01*
X92555Y282057D01*
X90931Y285978D01*
X90931Y290222D01*
X92555Y294143D01*
X95557Y297145D01*
X99478Y298769D01*
X103722Y298769D01*
X107643Y297145D01*
X110645Y294143D01*
X112269Y290222D01*
X112269Y285978D01*
X110645Y282057D01*
X107643Y279055D01*
X103722Y277431D01*
X99478Y277431D01*
G37*
%LPD*%
%LPC*%
G36*
X74078Y277431D02*
X74078Y277431D01*
X70157Y279055D01*
X67155Y282057D01*
X65531Y285978D01*
X65531Y290222D01*
X67155Y294143D01*
X70157Y297145D01*
X74078Y298769D01*
X78322Y298769D01*
X82243Y297145D01*
X85245Y294143D01*
X86869Y290222D01*
X86869Y285978D01*
X85245Y282057D01*
X82243Y279055D01*
X78322Y277431D01*
X74078Y277431D01*
G37*
%LPD*%
%LPC*%
G36*
X48678Y277431D02*
X48678Y277431D01*
X44757Y279055D01*
X41755Y282057D01*
X40131Y285978D01*
X40131Y290222D01*
X41755Y294143D01*
X44757Y297145D01*
X48678Y298769D01*
X52922Y298769D01*
X56843Y297145D01*
X59845Y294143D01*
X61469Y290222D01*
X61469Y285978D01*
X59845Y282057D01*
X56843Y279055D01*
X52922Y277431D01*
X48678Y277431D01*
G37*
%LPD*%
%LPC*%
G36*
X493678Y265331D02*
X493678Y265331D01*
X489757Y266955D01*
X486755Y269957D01*
X485131Y273878D01*
X485131Y278122D01*
X486755Y282043D01*
X489757Y285045D01*
X493678Y286669D01*
X497922Y286669D01*
X501843Y285045D01*
X504845Y282043D01*
X506469Y278122D01*
X506469Y273878D01*
X504845Y269957D01*
X501843Y266955D01*
X497922Y265331D01*
X493678Y265331D01*
G37*
%LPD*%
%LPC*%
G36*
X468278Y265331D02*
X468278Y265331D01*
X464357Y266955D01*
X461355Y269957D01*
X459731Y273878D01*
X459731Y278122D01*
X461355Y282043D01*
X464357Y285045D01*
X468278Y286669D01*
X472522Y286669D01*
X476443Y285045D01*
X479445Y282043D01*
X481069Y278122D01*
X481069Y273878D01*
X479445Y269957D01*
X476443Y266955D01*
X472522Y265331D01*
X468278Y265331D01*
G37*
%LPD*%
%LPC*%
G36*
X493678Y239931D02*
X493678Y239931D01*
X489757Y241555D01*
X486755Y244557D01*
X485131Y248478D01*
X485131Y252722D01*
X486755Y256643D01*
X489757Y259645D01*
X493678Y261269D01*
X497922Y261269D01*
X501843Y259645D01*
X504845Y256643D01*
X506469Y252722D01*
X506469Y248478D01*
X504845Y244557D01*
X501843Y241555D01*
X497922Y239931D01*
X493678Y239931D01*
G37*
%LPD*%
%LPC*%
G36*
X468278Y239931D02*
X468278Y239931D01*
X464357Y241555D01*
X461355Y244557D01*
X459731Y248478D01*
X459731Y252722D01*
X461355Y256643D01*
X464357Y259645D01*
X468278Y261269D01*
X472522Y261269D01*
X476443Y259645D01*
X479445Y256643D01*
X481069Y252722D01*
X481069Y248478D01*
X479445Y244557D01*
X476443Y241555D01*
X472522Y239931D01*
X468278Y239931D01*
G37*
%LPD*%
%LPC*%
G36*
X493678Y214531D02*
X493678Y214531D01*
X489757Y216155D01*
X486755Y219157D01*
X485131Y223078D01*
X485131Y227322D01*
X486755Y231243D01*
X489757Y234245D01*
X493678Y235869D01*
X497922Y235869D01*
X501843Y234245D01*
X504845Y231243D01*
X506469Y227322D01*
X506469Y223078D01*
X504845Y219157D01*
X501843Y216155D01*
X497922Y214531D01*
X493678Y214531D01*
G37*
%LPD*%
%LPC*%
G36*
X468278Y214531D02*
X468278Y214531D01*
X464357Y216155D01*
X461355Y219157D01*
X459731Y223078D01*
X459731Y227322D01*
X461355Y231243D01*
X464357Y234245D01*
X468278Y235869D01*
X472522Y235869D01*
X476443Y234245D01*
X479445Y231243D01*
X481069Y227322D01*
X481069Y223078D01*
X479445Y219157D01*
X476443Y216155D01*
X472522Y214531D01*
X468278Y214531D01*
G37*
%LPD*%
%LPC*%
G36*
X74078Y27431D02*
X74078Y27431D01*
X70157Y29055D01*
X67155Y32057D01*
X65531Y35978D01*
X65531Y40222D01*
X67155Y44143D01*
X70157Y47145D01*
X74078Y48769D01*
X78322Y48769D01*
X82243Y47145D01*
X85245Y44143D01*
X86869Y40222D01*
X86869Y35978D01*
X85245Y32057D01*
X82243Y29055D01*
X78322Y27431D01*
X74078Y27431D01*
G37*
%LPD*%
%LPC*%
G36*
X493678Y189131D02*
X493678Y189131D01*
X489757Y190755D01*
X486755Y193757D01*
X485131Y197678D01*
X485131Y201922D01*
X486755Y205843D01*
X489757Y208845D01*
X493678Y210469D01*
X497922Y210469D01*
X501843Y208845D01*
X504845Y205843D01*
X506469Y201922D01*
X506469Y197678D01*
X504845Y193757D01*
X501843Y190755D01*
X497922Y189131D01*
X493678Y189131D01*
G37*
%LPD*%
%LPC*%
G36*
X468278Y189131D02*
X468278Y189131D01*
X464357Y190755D01*
X461355Y193757D01*
X459731Y197678D01*
X459731Y201922D01*
X461355Y205843D01*
X464357Y208845D01*
X468278Y210469D01*
X472522Y210469D01*
X476443Y208845D01*
X479445Y205843D01*
X481069Y201922D01*
X481069Y197678D01*
X479445Y193757D01*
X476443Y190755D01*
X472522Y189131D01*
X468278Y189131D01*
G37*
%LPD*%
%LPC*%
G36*
X48678Y27431D02*
X48678Y27431D01*
X44757Y29055D01*
X41755Y32057D01*
X40131Y35978D01*
X40131Y40222D01*
X41755Y44143D01*
X44757Y47145D01*
X48678Y48769D01*
X52922Y48769D01*
X56843Y47145D01*
X59845Y44143D01*
X61469Y40222D01*
X61469Y35978D01*
X59845Y32057D01*
X56843Y29055D01*
X52922Y27431D01*
X48678Y27431D01*
G37*
%LPD*%
%LPC*%
G36*
X493678Y163731D02*
X493678Y163731D01*
X489757Y165355D01*
X486755Y168357D01*
X485131Y172278D01*
X485131Y176522D01*
X486755Y180443D01*
X489757Y183445D01*
X493678Y185069D01*
X497922Y185069D01*
X501843Y183445D01*
X504845Y180443D01*
X506469Y176522D01*
X506469Y172278D01*
X504845Y168357D01*
X501843Y165355D01*
X497922Y163731D01*
X493678Y163731D01*
G37*
%LPD*%
%LPC*%
G36*
X468278Y163731D02*
X468278Y163731D01*
X464357Y165355D01*
X461355Y168357D01*
X459731Y172278D01*
X459731Y176522D01*
X461355Y180443D01*
X464357Y183445D01*
X468278Y185069D01*
X472522Y185069D01*
X476443Y183445D01*
X479445Y180443D01*
X481069Y176522D01*
X481069Y172278D01*
X479445Y168357D01*
X476443Y165355D01*
X472522Y163731D01*
X468278Y163731D01*
G37*
%LPD*%
%LPC*%
G36*
X493678Y138331D02*
X493678Y138331D01*
X489757Y139955D01*
X486755Y142957D01*
X485131Y146878D01*
X485131Y151122D01*
X486755Y155043D01*
X489757Y158045D01*
X493678Y159669D01*
X497922Y159669D01*
X501843Y158045D01*
X504845Y155043D01*
X506469Y151122D01*
X506469Y146878D01*
X504845Y142957D01*
X501843Y139955D01*
X497922Y138331D01*
X493678Y138331D01*
G37*
%LPD*%
%LPC*%
G36*
X468278Y138331D02*
X468278Y138331D01*
X464357Y139955D01*
X461355Y142957D01*
X459731Y146878D01*
X459731Y151122D01*
X461355Y155043D01*
X464357Y158045D01*
X468278Y159669D01*
X472522Y159669D01*
X476443Y158045D01*
X479445Y155043D01*
X481069Y151122D01*
X481069Y146878D01*
X479445Y142957D01*
X476443Y139955D01*
X472522Y138331D01*
X468278Y138331D01*
G37*
%LPD*%
%LPC*%
G36*
X493678Y112931D02*
X493678Y112931D01*
X489757Y114555D01*
X486755Y117557D01*
X485131Y121478D01*
X485131Y125722D01*
X486755Y129643D01*
X489757Y132645D01*
X493678Y134269D01*
X497922Y134269D01*
X501843Y132645D01*
X504845Y129643D01*
X506469Y125722D01*
X506469Y121478D01*
X504845Y117557D01*
X501843Y114555D01*
X497922Y112931D01*
X493678Y112931D01*
G37*
%LPD*%
%LPC*%
G36*
X468278Y112931D02*
X468278Y112931D01*
X464357Y114555D01*
X461355Y117557D01*
X459731Y121478D01*
X459731Y125722D01*
X461355Y129643D01*
X464357Y132645D01*
X468278Y134269D01*
X472522Y134269D01*
X476443Y132645D01*
X479445Y129643D01*
X481069Y125722D01*
X481069Y121478D01*
X479445Y117557D01*
X476443Y114555D01*
X472522Y112931D01*
X468278Y112931D01*
G37*
%LPD*%
%LPC*%
G36*
X493678Y87531D02*
X493678Y87531D01*
X489757Y89155D01*
X486755Y92157D01*
X485131Y96078D01*
X485131Y100322D01*
X486755Y104243D01*
X489757Y107245D01*
X493678Y108869D01*
X497922Y108869D01*
X501843Y107245D01*
X504845Y104243D01*
X506469Y100322D01*
X506469Y96078D01*
X504845Y92157D01*
X501843Y89155D01*
X497922Y87531D01*
X493678Y87531D01*
G37*
%LPD*%
%LPC*%
G36*
X468278Y87531D02*
X468278Y87531D01*
X464357Y89155D01*
X461355Y92157D01*
X459731Y96078D01*
X459731Y100322D01*
X461355Y104243D01*
X464357Y107245D01*
X468278Y108869D01*
X472522Y108869D01*
X476443Y107245D01*
X479445Y104243D01*
X481069Y100322D01*
X481069Y96078D01*
X479445Y92157D01*
X476443Y89155D01*
X472522Y87531D01*
X468278Y87531D01*
G37*
%LPD*%
%LPC*%
G36*
X493678Y62131D02*
X493678Y62131D01*
X489757Y63755D01*
X486755Y66757D01*
X485131Y70678D01*
X485131Y74922D01*
X486755Y78843D01*
X489757Y81845D01*
X493678Y83469D01*
X497922Y83469D01*
X501843Y81845D01*
X504845Y78843D01*
X506469Y74922D01*
X506469Y70678D01*
X504845Y66757D01*
X501843Y63755D01*
X497922Y62131D01*
X493678Y62131D01*
G37*
%LPD*%
%LPC*%
G36*
X468278Y62131D02*
X468278Y62131D01*
X464357Y63755D01*
X461355Y66757D01*
X459731Y70678D01*
X459731Y74922D01*
X461355Y78843D01*
X464357Y81845D01*
X468278Y83469D01*
X472522Y83469D01*
X476443Y81845D01*
X479445Y78843D01*
X481069Y74922D01*
X481069Y70678D01*
X479445Y66757D01*
X476443Y63755D01*
X472522Y62131D01*
X468278Y62131D01*
G37*
%LPD*%
%LPC*%
G36*
X493678Y36731D02*
X493678Y36731D01*
X489757Y38355D01*
X486755Y41357D01*
X485131Y45278D01*
X485131Y49522D01*
X486755Y53443D01*
X489757Y56445D01*
X493678Y58069D01*
X497922Y58069D01*
X501843Y56445D01*
X504845Y53443D01*
X506469Y49522D01*
X506469Y45278D01*
X504845Y41357D01*
X501843Y38355D01*
X497922Y36731D01*
X493678Y36731D01*
G37*
%LPD*%
%LPC*%
G36*
X468278Y36731D02*
X468278Y36731D01*
X464357Y38355D01*
X461355Y41357D01*
X459731Y45278D01*
X459731Y49522D01*
X461355Y53443D01*
X464357Y56445D01*
X468278Y58069D01*
X472522Y58069D01*
X476443Y56445D01*
X479445Y53443D01*
X481069Y49522D01*
X481069Y45278D01*
X479445Y41357D01*
X476443Y38355D01*
X472522Y36731D01*
X468278Y36731D01*
G37*
%LPD*%
%LPC*%
G36*
X404278Y27431D02*
X404278Y27431D01*
X400357Y29055D01*
X397355Y32057D01*
X395731Y35978D01*
X395731Y40222D01*
X397355Y44143D01*
X400357Y47145D01*
X404278Y48769D01*
X408522Y48769D01*
X412443Y47145D01*
X415445Y44143D01*
X417069Y40222D01*
X417069Y35978D01*
X415445Y32057D01*
X412443Y29055D01*
X408522Y27431D01*
X404278Y27431D01*
G37*
%LPD*%
%LPC*%
G36*
X378878Y27431D02*
X378878Y27431D01*
X374957Y29055D01*
X371955Y32057D01*
X370331Y35978D01*
X370331Y40222D01*
X371955Y44143D01*
X374957Y47145D01*
X378878Y48769D01*
X383122Y48769D01*
X387043Y47145D01*
X390045Y44143D01*
X391669Y40222D01*
X391669Y35978D01*
X390045Y32057D01*
X387043Y29055D01*
X383122Y27431D01*
X378878Y27431D01*
G37*
%LPD*%
%LPC*%
G36*
X353478Y27431D02*
X353478Y27431D01*
X349557Y29055D01*
X346555Y32057D01*
X344931Y35978D01*
X344931Y40222D01*
X346555Y44143D01*
X349557Y47145D01*
X353478Y48769D01*
X357722Y48769D01*
X361643Y47145D01*
X364645Y44143D01*
X366269Y40222D01*
X366269Y35978D01*
X364645Y32057D01*
X361643Y29055D01*
X357722Y27431D01*
X353478Y27431D01*
G37*
%LPD*%
%LPC*%
G36*
X328078Y27431D02*
X328078Y27431D01*
X324157Y29055D01*
X321155Y32057D01*
X319531Y35978D01*
X319531Y40222D01*
X321155Y44143D01*
X324157Y47145D01*
X328078Y48769D01*
X332322Y48769D01*
X336243Y47145D01*
X339245Y44143D01*
X340869Y40222D01*
X340869Y35978D01*
X339245Y32057D01*
X336243Y29055D01*
X332322Y27431D01*
X328078Y27431D01*
G37*
%LPD*%
%LPC*%
G36*
X302678Y27431D02*
X302678Y27431D01*
X298757Y29055D01*
X295755Y32057D01*
X294131Y35978D01*
X294131Y40222D01*
X295755Y44143D01*
X298757Y47145D01*
X302678Y48769D01*
X306922Y48769D01*
X310843Y47145D01*
X313845Y44143D01*
X315469Y40222D01*
X315469Y35978D01*
X313845Y32057D01*
X310843Y29055D01*
X306922Y27431D01*
X302678Y27431D01*
G37*
%LPD*%
%LPC*%
G36*
X277278Y27431D02*
X277278Y27431D01*
X273357Y29055D01*
X270355Y32057D01*
X268731Y35978D01*
X268731Y40222D01*
X270355Y44143D01*
X273357Y47145D01*
X277278Y48769D01*
X281522Y48769D01*
X285443Y47145D01*
X288445Y44143D01*
X290069Y40222D01*
X290069Y35978D01*
X288445Y32057D01*
X285443Y29055D01*
X281522Y27431D01*
X277278Y27431D01*
G37*
%LPD*%
%LPC*%
G36*
X251878Y27431D02*
X251878Y27431D01*
X247957Y29055D01*
X244955Y32057D01*
X243331Y35978D01*
X243331Y40222D01*
X244955Y44143D01*
X247957Y47145D01*
X251878Y48769D01*
X256122Y48769D01*
X260043Y47145D01*
X263045Y44143D01*
X264669Y40222D01*
X264669Y35978D01*
X263045Y32057D01*
X260043Y29055D01*
X256122Y27431D01*
X251878Y27431D01*
G37*
%LPD*%
%LPC*%
G36*
X226478Y27431D02*
X226478Y27431D01*
X222557Y29055D01*
X219555Y32057D01*
X217931Y35978D01*
X217931Y40222D01*
X219555Y44143D01*
X222557Y47145D01*
X226478Y48769D01*
X230722Y48769D01*
X234643Y47145D01*
X237645Y44143D01*
X239269Y40222D01*
X239269Y35978D01*
X237645Y32057D01*
X234643Y29055D01*
X230722Y27431D01*
X226478Y27431D01*
G37*
%LPD*%
%LPC*%
G36*
X201078Y27431D02*
X201078Y27431D01*
X197157Y29055D01*
X194155Y32057D01*
X192531Y35978D01*
X192531Y40222D01*
X194155Y44143D01*
X197157Y47145D01*
X201078Y48769D01*
X205322Y48769D01*
X209243Y47145D01*
X212245Y44143D01*
X213869Y40222D01*
X213869Y35978D01*
X212245Y32057D01*
X209243Y29055D01*
X205322Y27431D01*
X201078Y27431D01*
G37*
%LPD*%
%LPC*%
G36*
X175678Y27431D02*
X175678Y27431D01*
X171757Y29055D01*
X168755Y32057D01*
X167131Y35978D01*
X167131Y40222D01*
X168755Y44143D01*
X171757Y47145D01*
X175678Y48769D01*
X179922Y48769D01*
X183843Y47145D01*
X186845Y44143D01*
X188469Y40222D01*
X188469Y35978D01*
X186845Y32057D01*
X183843Y29055D01*
X179922Y27431D01*
X175678Y27431D01*
G37*
%LPD*%
%LPC*%
G36*
X150278Y27431D02*
X150278Y27431D01*
X146357Y29055D01*
X143355Y32057D01*
X141731Y35978D01*
X141731Y40222D01*
X143355Y44143D01*
X146357Y47145D01*
X150278Y48769D01*
X154522Y48769D01*
X158443Y47145D01*
X161445Y44143D01*
X163069Y40222D01*
X163069Y35978D01*
X161445Y32057D01*
X158443Y29055D01*
X154522Y27431D01*
X150278Y27431D01*
G37*
%LPD*%
%LPC*%
G36*
X124878Y27431D02*
X124878Y27431D01*
X120957Y29055D01*
X117955Y32057D01*
X116331Y35978D01*
X116331Y40222D01*
X117955Y44143D01*
X120957Y47145D01*
X124878Y48769D01*
X129122Y48769D01*
X133043Y47145D01*
X136045Y44143D01*
X137669Y40222D01*
X137669Y35978D01*
X136045Y32057D01*
X133043Y29055D01*
X129122Y27431D01*
X124878Y27431D01*
G37*
%LPD*%
%LPC*%
G36*
X99478Y27431D02*
X99478Y27431D01*
X95557Y29055D01*
X92555Y32057D01*
X90931Y35978D01*
X90931Y40222D01*
X92555Y44143D01*
X95557Y47145D01*
X99478Y48769D01*
X103722Y48769D01*
X107643Y47145D01*
X110645Y44143D01*
X112269Y40222D01*
X112269Y35978D01*
X110645Y32057D01*
X107643Y29055D01*
X103722Y27431D01*
X99478Y27431D01*
G37*
%LPD*%
%LPC*%
G36*
X436791Y209069D02*
X436791Y209069D01*
X434281Y210109D01*
X432359Y212031D01*
X431319Y214541D01*
X431319Y217259D01*
X432359Y219769D01*
X434281Y221691D01*
X436791Y222731D01*
X439509Y222731D01*
X442019Y221691D01*
X443941Y219769D01*
X444981Y217259D01*
X444981Y214541D01*
X443941Y212031D01*
X442019Y210109D01*
X439509Y209069D01*
X436791Y209069D01*
G37*
%LPD*%
%LPC*%
G36*
X262166Y193194D02*
X262166Y193194D01*
X259656Y194234D01*
X257734Y196156D01*
X256694Y198666D01*
X256694Y201384D01*
X257734Y203894D01*
X259656Y205816D01*
X262166Y206856D01*
X264884Y206856D01*
X267394Y205816D01*
X269316Y203894D01*
X270356Y201384D01*
X270356Y198666D01*
X269316Y196156D01*
X267394Y194234D01*
X264884Y193194D01*
X262166Y193194D01*
G37*
%LPD*%
%LPC*%
G36*
X363766Y142394D02*
X363766Y142394D01*
X361256Y143434D01*
X359334Y145356D01*
X358294Y147866D01*
X358294Y150584D01*
X359334Y153094D01*
X361256Y155016D01*
X363766Y156056D01*
X366484Y156056D01*
X368994Y155016D01*
X370916Y153094D01*
X371956Y150584D01*
X371956Y147866D01*
X370916Y145356D01*
X368994Y143434D01*
X366484Y142394D01*
X363766Y142394D01*
G37*
%LPD*%
%LPC*%
G36*
X312966Y167794D02*
X312966Y167794D01*
X310456Y168834D01*
X308534Y170756D01*
X307494Y173266D01*
X307494Y175984D01*
X308534Y178494D01*
X310456Y180416D01*
X312966Y181456D01*
X315684Y181456D01*
X318194Y180416D01*
X320116Y178494D01*
X321156Y175984D01*
X321156Y173266D01*
X320116Y170756D01*
X318194Y168834D01*
X315684Y167794D01*
X312966Y167794D01*
G37*
%LPD*%
D10*
X470400Y276000D03*
X495800Y276000D03*
X470400Y250600D03*
X495800Y250600D03*
X470400Y225200D03*
X495800Y225200D03*
X470400Y199800D03*
X495800Y199800D03*
X470400Y174400D03*
X495800Y174400D03*
X470400Y149000D03*
X495800Y149000D03*
X470400Y123600D03*
X495800Y123600D03*
X470400Y98200D03*
X495800Y98200D03*
X470400Y72800D03*
X495800Y72800D03*
X470400Y47400D03*
X495800Y47400D03*
X50800Y288100D03*
X76200Y288100D03*
X101600Y288100D03*
X127000Y288100D03*
X152400Y288100D03*
X177800Y288100D03*
X203200Y288100D03*
X228600Y288100D03*
X254000Y288100D03*
X279400Y288100D03*
X304800Y288100D03*
X330200Y288100D03*
X355600Y288100D03*
X381000Y288100D03*
X406400Y288100D03*
X50800Y38100D03*
X76200Y38100D03*
X101600Y38100D03*
X127000Y38100D03*
X152400Y38100D03*
X177800Y38100D03*
X203200Y38100D03*
X228600Y38100D03*
X254000Y38100D03*
X279400Y38100D03*
X304800Y38100D03*
X330200Y38100D03*
X355600Y38100D03*
X381000Y38100D03*
X406400Y38100D03*
D11*
X438150Y215900D03*
X263525Y200025D03*
X314325Y174625D03*
X365125Y149225D03*
M02*
