G04 EAGLE Gerber RS-274X export*
G75*
%MOMM*%
%FSLAX34Y34*%
%LPD*%
%INSilkscreen Top*%
%IPPOS*%
%AMOC8*
5,1,8,0,0,1.08239X$1,22.5*%
G01*
%ADD10C,0.152400*%
%ADD11C,0.127000*%


D10*
X45762Y263406D02*
X50278Y267018D01*
X50278Y250762D01*
X54793Y250762D02*
X45762Y250762D01*
X50278Y77018D02*
X45762Y73406D01*
X50278Y77018D02*
X50278Y60762D01*
X54793Y60762D02*
X45762Y60762D01*
X395762Y263406D02*
X400278Y267018D01*
X400278Y250762D01*
X404793Y250762D02*
X395762Y250762D01*
X411393Y250762D02*
X416812Y250762D01*
X416930Y250764D01*
X417048Y250770D01*
X417166Y250779D01*
X417283Y250793D01*
X417400Y250810D01*
X417517Y250831D01*
X417632Y250856D01*
X417747Y250885D01*
X417861Y250918D01*
X417973Y250954D01*
X418084Y250994D01*
X418194Y251037D01*
X418303Y251084D01*
X418410Y251134D01*
X418515Y251189D01*
X418618Y251246D01*
X418719Y251307D01*
X418819Y251371D01*
X418916Y251438D01*
X419011Y251508D01*
X419103Y251582D01*
X419194Y251658D01*
X419281Y251738D01*
X419366Y251820D01*
X419448Y251905D01*
X419528Y251992D01*
X419604Y252083D01*
X419678Y252175D01*
X419748Y252270D01*
X419815Y252367D01*
X419879Y252467D01*
X419940Y252568D01*
X419997Y252671D01*
X420052Y252776D01*
X420102Y252883D01*
X420149Y252992D01*
X420192Y253102D01*
X420232Y253213D01*
X420268Y253325D01*
X420301Y253439D01*
X420330Y253554D01*
X420355Y253669D01*
X420376Y253786D01*
X420393Y253903D01*
X420407Y254020D01*
X420416Y254138D01*
X420422Y254256D01*
X420424Y254374D01*
X420424Y256181D01*
X420422Y256299D01*
X420416Y256417D01*
X420407Y256535D01*
X420393Y256652D01*
X420376Y256769D01*
X420355Y256886D01*
X420330Y257001D01*
X420301Y257116D01*
X420268Y257230D01*
X420232Y257342D01*
X420192Y257453D01*
X420149Y257563D01*
X420102Y257672D01*
X420052Y257779D01*
X419997Y257884D01*
X419940Y257987D01*
X419879Y258088D01*
X419815Y258188D01*
X419748Y258285D01*
X419678Y258380D01*
X419604Y258472D01*
X419528Y258563D01*
X419448Y258650D01*
X419366Y258735D01*
X419281Y258817D01*
X419194Y258897D01*
X419103Y258973D01*
X419011Y259047D01*
X418916Y259117D01*
X418819Y259184D01*
X418719Y259248D01*
X418618Y259309D01*
X418515Y259366D01*
X418410Y259421D01*
X418303Y259471D01*
X418194Y259518D01*
X418084Y259561D01*
X417973Y259601D01*
X417861Y259637D01*
X417747Y259670D01*
X417632Y259699D01*
X417517Y259724D01*
X417400Y259745D01*
X417283Y259762D01*
X417166Y259776D01*
X417048Y259785D01*
X416930Y259791D01*
X416812Y259793D01*
X411393Y259793D01*
X411393Y267018D01*
X420424Y267018D01*
X400278Y77018D02*
X395762Y73406D01*
X400278Y77018D02*
X400278Y60762D01*
X404793Y60762D02*
X395762Y60762D01*
X411393Y60762D02*
X416812Y60762D01*
X416930Y60764D01*
X417048Y60770D01*
X417166Y60779D01*
X417283Y60793D01*
X417400Y60810D01*
X417517Y60831D01*
X417632Y60856D01*
X417747Y60885D01*
X417861Y60918D01*
X417973Y60954D01*
X418084Y60994D01*
X418194Y61037D01*
X418303Y61084D01*
X418410Y61134D01*
X418515Y61189D01*
X418618Y61246D01*
X418719Y61307D01*
X418819Y61371D01*
X418916Y61438D01*
X419011Y61508D01*
X419103Y61582D01*
X419194Y61658D01*
X419281Y61738D01*
X419366Y61820D01*
X419448Y61905D01*
X419528Y61992D01*
X419604Y62083D01*
X419678Y62175D01*
X419748Y62270D01*
X419815Y62367D01*
X419879Y62467D01*
X419940Y62568D01*
X419997Y62671D01*
X420052Y62776D01*
X420102Y62883D01*
X420149Y62992D01*
X420192Y63102D01*
X420232Y63213D01*
X420268Y63325D01*
X420301Y63439D01*
X420330Y63554D01*
X420355Y63669D01*
X420376Y63786D01*
X420393Y63903D01*
X420407Y64020D01*
X420416Y64138D01*
X420422Y64256D01*
X420424Y64374D01*
X420424Y66181D01*
X420422Y66299D01*
X420416Y66417D01*
X420407Y66535D01*
X420393Y66652D01*
X420376Y66769D01*
X420355Y66886D01*
X420330Y67001D01*
X420301Y67116D01*
X420268Y67230D01*
X420232Y67342D01*
X420192Y67453D01*
X420149Y67563D01*
X420102Y67672D01*
X420052Y67779D01*
X419997Y67884D01*
X419940Y67987D01*
X419879Y68088D01*
X419815Y68188D01*
X419748Y68285D01*
X419678Y68380D01*
X419604Y68472D01*
X419528Y68563D01*
X419448Y68650D01*
X419366Y68735D01*
X419281Y68817D01*
X419194Y68897D01*
X419103Y68973D01*
X419011Y69047D01*
X418916Y69117D01*
X418819Y69184D01*
X418719Y69248D01*
X418618Y69309D01*
X418515Y69366D01*
X418410Y69421D01*
X418303Y69471D01*
X418194Y69518D01*
X418084Y69561D01*
X417973Y69601D01*
X417861Y69637D01*
X417747Y69670D01*
X417632Y69699D01*
X417517Y69724D01*
X417400Y69745D01*
X417283Y69762D01*
X417166Y69776D01*
X417048Y69785D01*
X416930Y69791D01*
X416812Y69793D01*
X411393Y69793D01*
X411393Y77018D01*
X420424Y77018D01*
X519793Y282954D02*
X519791Y283079D01*
X519785Y283204D01*
X519776Y283329D01*
X519762Y283453D01*
X519745Y283577D01*
X519724Y283701D01*
X519699Y283823D01*
X519670Y283945D01*
X519638Y284066D01*
X519602Y284186D01*
X519562Y284305D01*
X519519Y284422D01*
X519472Y284538D01*
X519421Y284653D01*
X519367Y284765D01*
X519309Y284877D01*
X519249Y284986D01*
X519184Y285093D01*
X519117Y285199D01*
X519046Y285302D01*
X518972Y285403D01*
X518895Y285502D01*
X518815Y285598D01*
X518732Y285692D01*
X518647Y285783D01*
X518558Y285872D01*
X518467Y285957D01*
X518373Y286040D01*
X518277Y286120D01*
X518178Y286197D01*
X518077Y286271D01*
X517974Y286342D01*
X517868Y286409D01*
X517761Y286474D01*
X517652Y286534D01*
X517540Y286592D01*
X517428Y286646D01*
X517313Y286697D01*
X517197Y286744D01*
X517080Y286787D01*
X516961Y286827D01*
X516841Y286863D01*
X516720Y286895D01*
X516598Y286924D01*
X516476Y286949D01*
X516352Y286970D01*
X516228Y286987D01*
X516104Y287001D01*
X515979Y287010D01*
X515854Y287016D01*
X515729Y287018D01*
X515586Y287016D01*
X515444Y287010D01*
X515301Y287000D01*
X515159Y286987D01*
X515018Y286969D01*
X514876Y286948D01*
X514736Y286923D01*
X514596Y286894D01*
X514457Y286861D01*
X514319Y286824D01*
X514182Y286784D01*
X514047Y286740D01*
X513912Y286692D01*
X513779Y286640D01*
X513647Y286585D01*
X513517Y286526D01*
X513389Y286464D01*
X513262Y286398D01*
X513137Y286329D01*
X513014Y286257D01*
X512894Y286181D01*
X512775Y286102D01*
X512658Y286019D01*
X512544Y285934D01*
X512432Y285845D01*
X512323Y285754D01*
X512216Y285659D01*
X512111Y285562D01*
X512010Y285461D01*
X511911Y285358D01*
X511815Y285253D01*
X511722Y285144D01*
X511632Y285033D01*
X511545Y284920D01*
X511461Y284805D01*
X511381Y284687D01*
X511303Y284567D01*
X511229Y284445D01*
X511159Y284321D01*
X511091Y284195D01*
X511028Y284067D01*
X510967Y283938D01*
X510910Y283807D01*
X510857Y283675D01*
X510808Y283541D01*
X510762Y283406D01*
X518438Y279793D02*
X518532Y279885D01*
X518622Y279979D01*
X518710Y280076D01*
X518795Y280176D01*
X518877Y280278D01*
X518956Y280383D01*
X519031Y280490D01*
X519103Y280599D01*
X519172Y280710D01*
X519238Y280824D01*
X519300Y280939D01*
X519359Y281056D01*
X519414Y281175D01*
X519465Y281295D01*
X519513Y281417D01*
X519558Y281540D01*
X519598Y281664D01*
X519635Y281790D01*
X519668Y281917D01*
X519697Y282044D01*
X519723Y282173D01*
X519744Y282302D01*
X519762Y282432D01*
X519775Y282562D01*
X519785Y282692D01*
X519791Y282823D01*
X519793Y282954D01*
X518438Y279793D02*
X510762Y270762D01*
X519793Y270762D01*
X505729Y32018D02*
X505854Y32016D01*
X505979Y32010D01*
X506104Y32001D01*
X506228Y31987D01*
X506352Y31970D01*
X506476Y31949D01*
X506598Y31924D01*
X506720Y31895D01*
X506841Y31863D01*
X506961Y31827D01*
X507080Y31787D01*
X507197Y31744D01*
X507313Y31697D01*
X507428Y31646D01*
X507540Y31592D01*
X507652Y31534D01*
X507761Y31474D01*
X507868Y31409D01*
X507974Y31342D01*
X508077Y31271D01*
X508178Y31197D01*
X508277Y31120D01*
X508373Y31040D01*
X508467Y30957D01*
X508558Y30872D01*
X508647Y30783D01*
X508732Y30692D01*
X508815Y30598D01*
X508895Y30502D01*
X508972Y30403D01*
X509046Y30302D01*
X509117Y30199D01*
X509184Y30093D01*
X509249Y29986D01*
X509309Y29877D01*
X509367Y29765D01*
X509421Y29653D01*
X509472Y29538D01*
X509519Y29422D01*
X509562Y29305D01*
X509602Y29186D01*
X509638Y29066D01*
X509670Y28945D01*
X509699Y28823D01*
X509724Y28701D01*
X509745Y28577D01*
X509762Y28453D01*
X509776Y28329D01*
X509785Y28204D01*
X509791Y28079D01*
X509793Y27954D01*
X505729Y32018D02*
X505586Y32016D01*
X505444Y32010D01*
X505301Y32000D01*
X505159Y31987D01*
X505018Y31969D01*
X504876Y31948D01*
X504736Y31923D01*
X504596Y31894D01*
X504457Y31861D01*
X504319Y31824D01*
X504182Y31784D01*
X504047Y31740D01*
X503912Y31692D01*
X503779Y31640D01*
X503647Y31585D01*
X503517Y31526D01*
X503389Y31464D01*
X503262Y31398D01*
X503137Y31329D01*
X503014Y31257D01*
X502894Y31181D01*
X502775Y31102D01*
X502658Y31019D01*
X502544Y30934D01*
X502432Y30845D01*
X502323Y30754D01*
X502216Y30659D01*
X502111Y30562D01*
X502010Y30461D01*
X501911Y30358D01*
X501815Y30253D01*
X501722Y30144D01*
X501632Y30033D01*
X501545Y29920D01*
X501461Y29805D01*
X501381Y29687D01*
X501303Y29567D01*
X501229Y29445D01*
X501159Y29321D01*
X501091Y29195D01*
X501028Y29067D01*
X500967Y28938D01*
X500910Y28807D01*
X500857Y28675D01*
X500808Y28541D01*
X500762Y28406D01*
X508438Y24793D02*
X508532Y24885D01*
X508622Y24979D01*
X508710Y25076D01*
X508795Y25176D01*
X508877Y25278D01*
X508956Y25383D01*
X509031Y25490D01*
X509103Y25599D01*
X509172Y25710D01*
X509238Y25824D01*
X509300Y25939D01*
X509359Y26056D01*
X509414Y26175D01*
X509465Y26295D01*
X509513Y26417D01*
X509558Y26540D01*
X509598Y26664D01*
X509635Y26790D01*
X509668Y26917D01*
X509697Y27044D01*
X509723Y27173D01*
X509744Y27302D01*
X509762Y27432D01*
X509775Y27562D01*
X509785Y27692D01*
X509791Y27823D01*
X509793Y27954D01*
X508438Y24793D02*
X500762Y15762D01*
X509793Y15762D01*
X516393Y23890D02*
X516397Y24210D01*
X516408Y24529D01*
X516427Y24849D01*
X516454Y25167D01*
X516488Y25485D01*
X516530Y25802D01*
X516580Y26118D01*
X516637Y26433D01*
X516701Y26746D01*
X516773Y27058D01*
X516852Y27368D01*
X516939Y27675D01*
X517033Y27981D01*
X517134Y28284D01*
X517243Y28585D01*
X517358Y28883D01*
X517481Y29179D01*
X517611Y29471D01*
X517748Y29760D01*
X517748Y29761D02*
X517787Y29869D01*
X517830Y29976D01*
X517876Y30081D01*
X517927Y30185D01*
X517980Y30287D01*
X518037Y30387D01*
X518098Y30485D01*
X518162Y30580D01*
X518229Y30674D01*
X518300Y30765D01*
X518373Y30854D01*
X518450Y30940D01*
X518529Y31023D01*
X518611Y31104D01*
X518696Y31182D01*
X518784Y31256D01*
X518874Y31328D01*
X518966Y31396D01*
X519061Y31462D01*
X519158Y31524D01*
X519257Y31582D01*
X519359Y31638D01*
X519461Y31689D01*
X519566Y31737D01*
X519672Y31782D01*
X519780Y31823D01*
X519889Y31860D01*
X519999Y31893D01*
X520111Y31922D01*
X520223Y31948D01*
X520336Y31970D01*
X520450Y31987D01*
X520564Y32001D01*
X520679Y32011D01*
X520794Y32017D01*
X520909Y32019D01*
X520909Y32018D02*
X521024Y32016D01*
X521139Y32010D01*
X521254Y32000D01*
X521368Y31986D01*
X521482Y31969D01*
X521595Y31947D01*
X521707Y31921D01*
X521819Y31892D01*
X521929Y31859D01*
X522038Y31822D01*
X522146Y31781D01*
X522252Y31736D01*
X522357Y31688D01*
X522459Y31637D01*
X522560Y31581D01*
X522660Y31523D01*
X522757Y31461D01*
X522851Y31396D01*
X522944Y31327D01*
X523034Y31255D01*
X523122Y31181D01*
X523207Y31103D01*
X523289Y31022D01*
X523368Y30939D01*
X523445Y30853D01*
X523518Y30764D01*
X523589Y30673D01*
X523656Y30579D01*
X523720Y30484D01*
X523781Y30386D01*
X523838Y30286D01*
X523891Y30184D01*
X523942Y30080D01*
X523988Y29975D01*
X524031Y29868D01*
X524070Y29760D01*
X524069Y29760D02*
X524206Y29471D01*
X524336Y29179D01*
X524459Y28883D01*
X524574Y28585D01*
X524683Y28284D01*
X524784Y27981D01*
X524878Y27675D01*
X524965Y27368D01*
X525044Y27058D01*
X525116Y26746D01*
X525180Y26433D01*
X525237Y26118D01*
X525287Y25802D01*
X525329Y25485D01*
X525363Y25167D01*
X525390Y24849D01*
X525409Y24529D01*
X525420Y24210D01*
X525424Y23890D01*
X516394Y23890D02*
X516398Y23570D01*
X516409Y23251D01*
X516428Y22931D01*
X516455Y22613D01*
X516489Y22295D01*
X516531Y21978D01*
X516581Y21662D01*
X516638Y21347D01*
X516702Y21034D01*
X516774Y20722D01*
X516853Y20412D01*
X516940Y20105D01*
X517034Y19799D01*
X517135Y19496D01*
X517244Y19195D01*
X517359Y18897D01*
X517482Y18601D01*
X517612Y18309D01*
X517749Y18020D01*
X517748Y18020D02*
X517787Y17912D01*
X517830Y17805D01*
X517876Y17700D01*
X517927Y17596D01*
X517980Y17494D01*
X518037Y17394D01*
X518098Y17296D01*
X518162Y17201D01*
X518229Y17107D01*
X518300Y17016D01*
X518373Y16927D01*
X518450Y16841D01*
X518529Y16758D01*
X518611Y16677D01*
X518696Y16599D01*
X518784Y16525D01*
X518874Y16453D01*
X518967Y16384D01*
X519061Y16319D01*
X519158Y16257D01*
X519258Y16199D01*
X519359Y16143D01*
X519461Y16092D01*
X519566Y16044D01*
X519672Y15999D01*
X519780Y15958D01*
X519889Y15921D01*
X519999Y15888D01*
X520111Y15859D01*
X520223Y15833D01*
X520336Y15811D01*
X520450Y15794D01*
X520564Y15780D01*
X520679Y15770D01*
X520794Y15764D01*
X520909Y15762D01*
X524069Y18020D02*
X524206Y18309D01*
X524336Y18601D01*
X524459Y18897D01*
X524574Y19195D01*
X524683Y19496D01*
X524784Y19799D01*
X524878Y20105D01*
X524965Y20412D01*
X525044Y20722D01*
X525116Y21034D01*
X525180Y21347D01*
X525237Y21662D01*
X525287Y21978D01*
X525329Y22295D01*
X525363Y22613D01*
X525390Y22931D01*
X525409Y23251D01*
X525420Y23570D01*
X525424Y23890D01*
X524070Y18020D02*
X524031Y17912D01*
X523988Y17805D01*
X523942Y17700D01*
X523891Y17596D01*
X523838Y17494D01*
X523781Y17394D01*
X523720Y17296D01*
X523656Y17201D01*
X523589Y17107D01*
X523518Y17016D01*
X523445Y16927D01*
X523368Y16841D01*
X523289Y16758D01*
X523207Y16677D01*
X523122Y16599D01*
X523034Y16525D01*
X522944Y16453D01*
X522851Y16384D01*
X522757Y16319D01*
X522660Y16257D01*
X522560Y16199D01*
X522459Y16143D01*
X522356Y16092D01*
X522252Y16044D01*
X522146Y15999D01*
X522038Y15958D01*
X521929Y15921D01*
X521819Y15888D01*
X521707Y15859D01*
X521595Y15833D01*
X521482Y15811D01*
X521368Y15794D01*
X521254Y15780D01*
X521139Y15770D01*
X521024Y15764D01*
X520909Y15762D01*
X517296Y19374D02*
X524521Y28406D01*
X445278Y32018D02*
X440762Y28406D01*
X445278Y32018D02*
X445278Y15762D01*
X449793Y15762D02*
X440762Y15762D01*
X460006Y22987D02*
X465424Y22987D01*
X460006Y22987D02*
X459888Y22989D01*
X459770Y22995D01*
X459652Y23004D01*
X459535Y23018D01*
X459418Y23035D01*
X459301Y23056D01*
X459186Y23081D01*
X459071Y23110D01*
X458957Y23143D01*
X458845Y23179D01*
X458734Y23219D01*
X458624Y23262D01*
X458515Y23309D01*
X458408Y23359D01*
X458303Y23414D01*
X458200Y23471D01*
X458099Y23532D01*
X457999Y23596D01*
X457902Y23663D01*
X457807Y23733D01*
X457715Y23807D01*
X457624Y23883D01*
X457537Y23963D01*
X457452Y24045D01*
X457370Y24130D01*
X457290Y24217D01*
X457214Y24308D01*
X457140Y24400D01*
X457070Y24495D01*
X457003Y24592D01*
X456939Y24692D01*
X456878Y24793D01*
X456821Y24896D01*
X456766Y25001D01*
X456716Y25108D01*
X456669Y25217D01*
X456626Y25327D01*
X456586Y25438D01*
X456550Y25550D01*
X456517Y25664D01*
X456488Y25779D01*
X456463Y25894D01*
X456442Y26011D01*
X456425Y26128D01*
X456411Y26245D01*
X456402Y26363D01*
X456396Y26481D01*
X456394Y26599D01*
X456393Y26599D02*
X456393Y27502D01*
X456395Y27635D01*
X456401Y27767D01*
X456411Y27899D01*
X456424Y28031D01*
X456442Y28163D01*
X456463Y28293D01*
X456488Y28424D01*
X456517Y28553D01*
X456550Y28681D01*
X456586Y28809D01*
X456626Y28935D01*
X456670Y29060D01*
X456718Y29184D01*
X456769Y29306D01*
X456824Y29427D01*
X456882Y29546D01*
X456944Y29664D01*
X457009Y29779D01*
X457078Y29893D01*
X457149Y30004D01*
X457225Y30113D01*
X457303Y30220D01*
X457384Y30325D01*
X457469Y30427D01*
X457556Y30527D01*
X457646Y30624D01*
X457739Y30719D01*
X457835Y30810D01*
X457933Y30899D01*
X458034Y30985D01*
X458138Y31068D01*
X458244Y31148D01*
X458352Y31224D01*
X458462Y31298D01*
X458575Y31368D01*
X458689Y31435D01*
X458806Y31498D01*
X458924Y31558D01*
X459044Y31615D01*
X459166Y31668D01*
X459289Y31717D01*
X459413Y31763D01*
X459539Y31805D01*
X459666Y31843D01*
X459794Y31878D01*
X459923Y31909D01*
X460052Y31936D01*
X460183Y31959D01*
X460314Y31979D01*
X460446Y31994D01*
X460578Y32006D01*
X460710Y32014D01*
X460843Y32018D01*
X460975Y32018D01*
X461108Y32014D01*
X461240Y32006D01*
X461372Y31994D01*
X461504Y31979D01*
X461635Y31959D01*
X461766Y31936D01*
X461895Y31909D01*
X462024Y31878D01*
X462152Y31843D01*
X462279Y31805D01*
X462405Y31763D01*
X462529Y31717D01*
X462652Y31668D01*
X462774Y31615D01*
X462894Y31558D01*
X463012Y31498D01*
X463129Y31435D01*
X463243Y31368D01*
X463356Y31298D01*
X463466Y31224D01*
X463574Y31148D01*
X463680Y31068D01*
X463784Y30985D01*
X463885Y30899D01*
X463983Y30810D01*
X464079Y30719D01*
X464172Y30624D01*
X464262Y30527D01*
X464349Y30427D01*
X464434Y30325D01*
X464515Y30220D01*
X464593Y30113D01*
X464669Y30004D01*
X464740Y29893D01*
X464809Y29779D01*
X464874Y29664D01*
X464936Y29546D01*
X464994Y29427D01*
X465049Y29306D01*
X465100Y29184D01*
X465148Y29060D01*
X465192Y28935D01*
X465232Y28809D01*
X465268Y28681D01*
X465301Y28553D01*
X465330Y28424D01*
X465355Y28293D01*
X465376Y28163D01*
X465394Y28031D01*
X465407Y27899D01*
X465417Y27767D01*
X465423Y27635D01*
X465425Y27502D01*
X465424Y27502D02*
X465424Y22987D01*
X465422Y22812D01*
X465416Y22638D01*
X465405Y22464D01*
X465390Y22290D01*
X465371Y22116D01*
X465348Y21943D01*
X465321Y21771D01*
X465289Y21599D01*
X465254Y21428D01*
X465214Y21258D01*
X465170Y21089D01*
X465122Y20921D01*
X465070Y20754D01*
X465014Y20589D01*
X464954Y20425D01*
X464891Y20262D01*
X464823Y20102D01*
X464751Y19942D01*
X464676Y19785D01*
X464596Y19629D01*
X464513Y19476D01*
X464427Y19324D01*
X464336Y19175D01*
X464242Y19028D01*
X464145Y18883D01*
X464044Y18740D01*
X463940Y18600D01*
X463832Y18463D01*
X463721Y18328D01*
X463607Y18196D01*
X463490Y18067D01*
X463369Y17940D01*
X463246Y17817D01*
X463119Y17696D01*
X462990Y17579D01*
X462858Y17465D01*
X462723Y17354D01*
X462586Y17246D01*
X462446Y17142D01*
X462303Y17041D01*
X462158Y16944D01*
X462011Y16850D01*
X461862Y16759D01*
X461710Y16673D01*
X461557Y16590D01*
X461401Y16510D01*
X461244Y16435D01*
X461084Y16363D01*
X460924Y16295D01*
X460761Y16232D01*
X460597Y16172D01*
X460432Y16116D01*
X460265Y16064D01*
X460097Y16016D01*
X459928Y15972D01*
X459758Y15932D01*
X459587Y15897D01*
X459415Y15865D01*
X459243Y15838D01*
X459070Y15815D01*
X458896Y15796D01*
X458722Y15781D01*
X458548Y15770D01*
X458374Y15764D01*
X458199Y15762D01*
X445762Y283406D02*
X450278Y287018D01*
X450278Y270762D01*
X454793Y270762D02*
X445762Y270762D01*
X457700Y282350D02*
X464050Y288700D01*
X457700Y269650D02*
X464050Y263300D01*
X457700Y256950D01*
X457700Y244250D02*
X464050Y237900D01*
X457700Y231550D01*
X457700Y218850D02*
X464050Y212500D01*
X457700Y206150D01*
X457700Y193450D02*
X464050Y187100D01*
X457700Y180750D01*
X457700Y168050D02*
X464050Y161700D01*
X457700Y155350D01*
X457700Y142650D02*
X464050Y136300D01*
X464050Y288700D02*
X502150Y288700D01*
X508500Y282350D01*
X508500Y269650D01*
X502150Y263300D01*
X508500Y256950D01*
X508500Y244250D01*
X502150Y237900D01*
X508500Y231550D01*
X508500Y218850D01*
X502150Y212500D01*
X508500Y206150D01*
X508500Y193450D01*
X502150Y187100D01*
X508500Y180750D01*
X508500Y168050D01*
X502150Y161700D01*
X508500Y155350D01*
X508500Y142650D01*
X502150Y136300D01*
X508500Y129950D01*
X508500Y117250D01*
X502150Y110900D01*
X508500Y104550D01*
X508500Y91850D01*
X502150Y85500D01*
X508500Y79150D01*
X508500Y66450D01*
X502150Y60100D01*
X464050Y60100D02*
X457700Y66450D01*
X457700Y79150D02*
X464050Y85500D01*
X457700Y91850D01*
X457700Y104550D02*
X464050Y110900D01*
X457700Y117250D01*
X457700Y129950D02*
X464050Y136300D01*
X464050Y263300D02*
X502150Y263300D01*
X502150Y237900D02*
X464050Y237900D01*
X464050Y212500D02*
X502150Y212500D01*
X502150Y187100D02*
X464050Y187100D01*
X464050Y161700D02*
X502150Y161700D01*
X502150Y136300D02*
X464050Y136300D01*
X464050Y110900D02*
X502150Y110900D01*
X502150Y85500D02*
X464050Y85500D01*
X464050Y60100D02*
X502150Y60100D01*
X457700Y66450D02*
X457700Y79150D01*
X457700Y91850D02*
X457700Y104550D01*
X457700Y117250D02*
X457700Y129950D01*
X457700Y142650D02*
X457700Y155350D01*
X457700Y168050D02*
X457700Y180750D01*
X457700Y193450D02*
X457700Y206150D01*
X457700Y218850D02*
X457700Y231550D01*
X457700Y244250D02*
X457700Y256950D01*
X457700Y269650D02*
X457700Y282350D01*
X502150Y60100D02*
X508500Y53750D01*
X508500Y41050D01*
X502150Y34700D01*
X464050Y34700D02*
X457700Y41050D01*
X457700Y53750D02*
X464050Y60100D01*
X464050Y34700D02*
X502150Y34700D01*
X457700Y41050D02*
X457700Y53750D01*
D11*
X480745Y298025D02*
X480745Y306915D01*
X480745Y298025D02*
X480743Y297925D01*
X480737Y297826D01*
X480727Y297726D01*
X480714Y297628D01*
X480696Y297529D01*
X480675Y297432D01*
X480650Y297336D01*
X480621Y297240D01*
X480588Y297146D01*
X480552Y297053D01*
X480512Y296962D01*
X480468Y296872D01*
X480421Y296784D01*
X480371Y296698D01*
X480317Y296614D01*
X480260Y296532D01*
X480200Y296453D01*
X480136Y296375D01*
X480070Y296301D01*
X480001Y296229D01*
X479929Y296160D01*
X479855Y296094D01*
X479777Y296030D01*
X479698Y295970D01*
X479616Y295913D01*
X479532Y295859D01*
X479446Y295809D01*
X479358Y295762D01*
X479268Y295718D01*
X479177Y295678D01*
X479084Y295642D01*
X478990Y295609D01*
X478894Y295580D01*
X478798Y295555D01*
X478701Y295534D01*
X478602Y295516D01*
X478504Y295503D01*
X478404Y295493D01*
X478305Y295487D01*
X478205Y295485D01*
X476935Y295485D01*
X486154Y304375D02*
X489329Y306915D01*
X489329Y295485D01*
X486154Y295485D02*
X492504Y295485D01*
D10*
X361950Y300800D02*
X349250Y300800D01*
X361950Y300800D02*
X368300Y294450D01*
X368300Y281750D01*
X361950Y275400D01*
X368300Y294450D02*
X374650Y300800D01*
X387350Y300800D01*
X393700Y294450D01*
X393700Y281750D01*
X387350Y275400D01*
X374650Y275400D01*
X368300Y281750D01*
X323850Y300800D02*
X317500Y294450D01*
X323850Y300800D02*
X336550Y300800D01*
X342900Y294450D01*
X342900Y281750D01*
X336550Y275400D01*
X323850Y275400D01*
X317500Y281750D01*
X342900Y294450D02*
X349250Y300800D01*
X342900Y281750D02*
X349250Y275400D01*
X361950Y275400D01*
X285750Y300800D02*
X273050Y300800D01*
X285750Y300800D02*
X292100Y294450D01*
X292100Y281750D01*
X285750Y275400D01*
X292100Y294450D02*
X298450Y300800D01*
X311150Y300800D01*
X317500Y294450D01*
X317500Y281750D01*
X311150Y275400D01*
X298450Y275400D01*
X292100Y281750D01*
X247650Y300800D02*
X241300Y294450D01*
X247650Y300800D02*
X260350Y300800D01*
X266700Y294450D01*
X266700Y281750D01*
X260350Y275400D01*
X247650Y275400D01*
X241300Y281750D01*
X266700Y294450D02*
X273050Y300800D01*
X266700Y281750D02*
X273050Y275400D01*
X285750Y275400D01*
X209550Y300800D02*
X196850Y300800D01*
X209550Y300800D02*
X215900Y294450D01*
X215900Y281750D01*
X209550Y275400D01*
X215900Y294450D02*
X222250Y300800D01*
X234950Y300800D01*
X241300Y294450D01*
X241300Y281750D01*
X234950Y275400D01*
X222250Y275400D01*
X215900Y281750D01*
X171450Y300800D02*
X165100Y294450D01*
X171450Y300800D02*
X184150Y300800D01*
X190500Y294450D01*
X190500Y281750D01*
X184150Y275400D01*
X171450Y275400D01*
X165100Y281750D01*
X190500Y294450D02*
X196850Y300800D01*
X190500Y281750D02*
X196850Y275400D01*
X209550Y275400D01*
X133350Y300800D02*
X120650Y300800D01*
X133350Y300800D02*
X139700Y294450D01*
X139700Y281750D01*
X133350Y275400D01*
X139700Y294450D02*
X146050Y300800D01*
X158750Y300800D01*
X165100Y294450D01*
X165100Y281750D01*
X158750Y275400D01*
X146050Y275400D01*
X139700Y281750D01*
X95250Y300800D02*
X88900Y294450D01*
X95250Y300800D02*
X107950Y300800D01*
X114300Y294450D01*
X114300Y281750D01*
X107950Y275400D01*
X95250Y275400D01*
X88900Y281750D01*
X114300Y294450D02*
X120650Y300800D01*
X114300Y281750D02*
X120650Y275400D01*
X133350Y275400D01*
X57150Y300800D02*
X44450Y300800D01*
X57150Y300800D02*
X63500Y294450D01*
X63500Y281750D01*
X57150Y275400D01*
X63500Y294450D02*
X69850Y300800D01*
X82550Y300800D01*
X88900Y294450D01*
X88900Y281750D01*
X82550Y275400D01*
X69850Y275400D01*
X63500Y281750D01*
X38100Y281750D02*
X38100Y294450D01*
X44450Y300800D01*
X38100Y281750D02*
X44450Y275400D01*
X57150Y275400D01*
X393700Y294450D02*
X400050Y300800D01*
X412750Y300800D01*
X419100Y294450D01*
X419100Y281750D01*
X412750Y275400D01*
X400050Y275400D01*
X393700Y281750D01*
D11*
X30437Y286783D02*
X21547Y286783D01*
X30437Y286783D02*
X30537Y286781D01*
X30636Y286775D01*
X30736Y286765D01*
X30834Y286752D01*
X30933Y286734D01*
X31030Y286713D01*
X31126Y286688D01*
X31222Y286659D01*
X31316Y286626D01*
X31409Y286590D01*
X31500Y286550D01*
X31590Y286506D01*
X31678Y286459D01*
X31764Y286409D01*
X31848Y286355D01*
X31930Y286298D01*
X32009Y286238D01*
X32087Y286174D01*
X32161Y286108D01*
X32233Y286039D01*
X32302Y285967D01*
X32368Y285893D01*
X32432Y285815D01*
X32492Y285736D01*
X32549Y285654D01*
X32603Y285570D01*
X32653Y285484D01*
X32700Y285396D01*
X32744Y285306D01*
X32784Y285215D01*
X32820Y285122D01*
X32853Y285028D01*
X32882Y284932D01*
X32907Y284836D01*
X32928Y284739D01*
X32946Y284640D01*
X32959Y284542D01*
X32969Y284442D01*
X32975Y284343D01*
X32977Y284243D01*
X32977Y282973D01*
X21547Y295684D02*
X21549Y295788D01*
X21555Y295893D01*
X21564Y295997D01*
X21577Y296100D01*
X21595Y296203D01*
X21615Y296305D01*
X21640Y296407D01*
X21668Y296507D01*
X21700Y296607D01*
X21736Y296705D01*
X21775Y296802D01*
X21817Y296897D01*
X21863Y296991D01*
X21913Y297083D01*
X21965Y297173D01*
X22021Y297261D01*
X22081Y297347D01*
X22143Y297431D01*
X22208Y297512D01*
X22276Y297591D01*
X22348Y297668D01*
X22421Y297741D01*
X22498Y297813D01*
X22577Y297881D01*
X22658Y297946D01*
X22742Y298008D01*
X22828Y298068D01*
X22916Y298124D01*
X23006Y298176D01*
X23098Y298226D01*
X23192Y298272D01*
X23287Y298314D01*
X23384Y298353D01*
X23482Y298389D01*
X23582Y298421D01*
X23682Y298449D01*
X23784Y298474D01*
X23886Y298494D01*
X23989Y298512D01*
X24092Y298525D01*
X24196Y298534D01*
X24301Y298540D01*
X24405Y298542D01*
X21547Y295684D02*
X21549Y295566D01*
X21555Y295447D01*
X21564Y295329D01*
X21577Y295212D01*
X21595Y295095D01*
X21615Y294978D01*
X21640Y294862D01*
X21668Y294747D01*
X21701Y294634D01*
X21736Y294521D01*
X21776Y294409D01*
X21818Y294299D01*
X21865Y294190D01*
X21915Y294082D01*
X21968Y293977D01*
X22025Y293873D01*
X22085Y293771D01*
X22148Y293671D01*
X22215Y293573D01*
X22284Y293477D01*
X22357Y293384D01*
X22433Y293293D01*
X22511Y293204D01*
X22593Y293118D01*
X22677Y293035D01*
X22763Y292954D01*
X22853Y292877D01*
X22944Y292802D01*
X23038Y292730D01*
X23135Y292661D01*
X23233Y292596D01*
X23334Y292533D01*
X23437Y292474D01*
X23541Y292418D01*
X23647Y292366D01*
X23755Y292317D01*
X23864Y292272D01*
X23975Y292230D01*
X24087Y292192D01*
X26627Y297590D02*
X26552Y297666D01*
X26473Y297741D01*
X26392Y297812D01*
X26308Y297881D01*
X26222Y297946D01*
X26134Y298008D01*
X26044Y298068D01*
X25952Y298124D01*
X25857Y298177D01*
X25761Y298226D01*
X25663Y298272D01*
X25564Y298315D01*
X25463Y298354D01*
X25361Y298389D01*
X25258Y298421D01*
X25154Y298449D01*
X25049Y298474D01*
X24942Y298495D01*
X24836Y298512D01*
X24729Y298525D01*
X24621Y298534D01*
X24513Y298540D01*
X24405Y298542D01*
X26627Y297589D02*
X32977Y292192D01*
X32977Y298542D01*
D10*
X349250Y50800D02*
X361950Y50800D01*
X368300Y44450D01*
X368300Y31750D01*
X361950Y25400D01*
X368300Y44450D02*
X374650Y50800D01*
X387350Y50800D01*
X393700Y44450D01*
X393700Y31750D01*
X387350Y25400D01*
X374650Y25400D01*
X368300Y31750D01*
X323850Y50800D02*
X317500Y44450D01*
X323850Y50800D02*
X336550Y50800D01*
X342900Y44450D01*
X342900Y31750D01*
X336550Y25400D01*
X323850Y25400D01*
X317500Y31750D01*
X342900Y44450D02*
X349250Y50800D01*
X342900Y31750D02*
X349250Y25400D01*
X361950Y25400D01*
X285750Y50800D02*
X273050Y50800D01*
X285750Y50800D02*
X292100Y44450D01*
X292100Y31750D01*
X285750Y25400D01*
X292100Y44450D02*
X298450Y50800D01*
X311150Y50800D01*
X317500Y44450D01*
X317500Y31750D01*
X311150Y25400D01*
X298450Y25400D01*
X292100Y31750D01*
X247650Y50800D02*
X241300Y44450D01*
X247650Y50800D02*
X260350Y50800D01*
X266700Y44450D01*
X266700Y31750D01*
X260350Y25400D01*
X247650Y25400D01*
X241300Y31750D01*
X266700Y44450D02*
X273050Y50800D01*
X266700Y31750D02*
X273050Y25400D01*
X285750Y25400D01*
X209550Y50800D02*
X196850Y50800D01*
X209550Y50800D02*
X215900Y44450D01*
X215900Y31750D01*
X209550Y25400D01*
X215900Y44450D02*
X222250Y50800D01*
X234950Y50800D01*
X241300Y44450D01*
X241300Y31750D01*
X234950Y25400D01*
X222250Y25400D01*
X215900Y31750D01*
X171450Y50800D02*
X165100Y44450D01*
X171450Y50800D02*
X184150Y50800D01*
X190500Y44450D01*
X190500Y31750D01*
X184150Y25400D01*
X171450Y25400D01*
X165100Y31750D01*
X190500Y44450D02*
X196850Y50800D01*
X190500Y31750D02*
X196850Y25400D01*
X209550Y25400D01*
X133350Y50800D02*
X120650Y50800D01*
X133350Y50800D02*
X139700Y44450D01*
X139700Y31750D01*
X133350Y25400D01*
X139700Y44450D02*
X146050Y50800D01*
X158750Y50800D01*
X165100Y44450D01*
X165100Y31750D01*
X158750Y25400D01*
X146050Y25400D01*
X139700Y31750D01*
X95250Y50800D02*
X88900Y44450D01*
X95250Y50800D02*
X107950Y50800D01*
X114300Y44450D01*
X114300Y31750D01*
X107950Y25400D01*
X95250Y25400D01*
X88900Y31750D01*
X114300Y44450D02*
X120650Y50800D01*
X114300Y31750D02*
X120650Y25400D01*
X133350Y25400D01*
X57150Y50800D02*
X44450Y50800D01*
X57150Y50800D02*
X63500Y44450D01*
X63500Y31750D01*
X57150Y25400D01*
X63500Y44450D02*
X69850Y50800D01*
X82550Y50800D01*
X88900Y44450D01*
X88900Y31750D01*
X82550Y25400D01*
X69850Y25400D01*
X63500Y31750D01*
X38100Y31750D02*
X38100Y44450D01*
X44450Y50800D01*
X38100Y31750D02*
X44450Y25400D01*
X57150Y25400D01*
X393700Y44450D02*
X400050Y50800D01*
X412750Y50800D01*
X419100Y44450D01*
X419100Y31750D01*
X412750Y25400D01*
X400050Y25400D01*
X393700Y31750D01*
D11*
X30437Y36783D02*
X21547Y36783D01*
X30437Y36783D02*
X30537Y36781D01*
X30636Y36775D01*
X30736Y36765D01*
X30834Y36752D01*
X30933Y36734D01*
X31030Y36713D01*
X31126Y36688D01*
X31222Y36659D01*
X31316Y36626D01*
X31409Y36590D01*
X31500Y36550D01*
X31590Y36506D01*
X31678Y36459D01*
X31764Y36409D01*
X31848Y36355D01*
X31930Y36298D01*
X32009Y36238D01*
X32087Y36174D01*
X32161Y36108D01*
X32233Y36039D01*
X32302Y35967D01*
X32368Y35893D01*
X32432Y35815D01*
X32492Y35736D01*
X32549Y35654D01*
X32603Y35570D01*
X32653Y35484D01*
X32700Y35396D01*
X32744Y35306D01*
X32784Y35215D01*
X32820Y35122D01*
X32853Y35028D01*
X32882Y34932D01*
X32907Y34836D01*
X32928Y34739D01*
X32946Y34640D01*
X32959Y34542D01*
X32969Y34442D01*
X32975Y34343D01*
X32977Y34243D01*
X32977Y32973D01*
X32977Y42192D02*
X32977Y45367D01*
X32975Y45478D01*
X32969Y45588D01*
X32960Y45699D01*
X32946Y45809D01*
X32929Y45918D01*
X32908Y46027D01*
X32883Y46135D01*
X32854Y46242D01*
X32822Y46348D01*
X32786Y46453D01*
X32746Y46556D01*
X32703Y46658D01*
X32656Y46759D01*
X32605Y46858D01*
X32552Y46955D01*
X32495Y47049D01*
X32434Y47142D01*
X32371Y47233D01*
X32304Y47322D01*
X32234Y47408D01*
X32161Y47491D01*
X32086Y47573D01*
X32008Y47651D01*
X31926Y47726D01*
X31843Y47799D01*
X31757Y47869D01*
X31668Y47936D01*
X31577Y47999D01*
X31484Y48060D01*
X31390Y48117D01*
X31293Y48170D01*
X31194Y48221D01*
X31093Y48268D01*
X30991Y48311D01*
X30888Y48351D01*
X30783Y48387D01*
X30677Y48419D01*
X30570Y48448D01*
X30462Y48473D01*
X30353Y48494D01*
X30244Y48511D01*
X30134Y48525D01*
X30023Y48534D01*
X29913Y48540D01*
X29802Y48542D01*
X29691Y48540D01*
X29581Y48534D01*
X29470Y48525D01*
X29360Y48511D01*
X29251Y48494D01*
X29142Y48473D01*
X29034Y48448D01*
X28927Y48419D01*
X28821Y48387D01*
X28716Y48351D01*
X28613Y48311D01*
X28511Y48268D01*
X28410Y48221D01*
X28311Y48170D01*
X28214Y48117D01*
X28120Y48060D01*
X28027Y47999D01*
X27936Y47936D01*
X27847Y47869D01*
X27761Y47799D01*
X27678Y47726D01*
X27596Y47651D01*
X27518Y47573D01*
X27443Y47491D01*
X27370Y47408D01*
X27300Y47322D01*
X27233Y47233D01*
X27170Y47142D01*
X27109Y47049D01*
X27052Y46954D01*
X26999Y46858D01*
X26948Y46759D01*
X26901Y46658D01*
X26858Y46556D01*
X26818Y46453D01*
X26782Y46348D01*
X26750Y46242D01*
X26721Y46135D01*
X26696Y46027D01*
X26675Y45918D01*
X26658Y45809D01*
X26644Y45699D01*
X26635Y45588D01*
X26629Y45478D01*
X26627Y45367D01*
X21547Y46002D02*
X21547Y42192D01*
X21547Y46002D02*
X21549Y46102D01*
X21555Y46201D01*
X21565Y46301D01*
X21578Y46399D01*
X21596Y46498D01*
X21617Y46595D01*
X21642Y46691D01*
X21671Y46787D01*
X21704Y46881D01*
X21740Y46974D01*
X21780Y47065D01*
X21824Y47155D01*
X21871Y47243D01*
X21921Y47329D01*
X21975Y47413D01*
X22032Y47495D01*
X22092Y47574D01*
X22156Y47652D01*
X22222Y47726D01*
X22291Y47798D01*
X22363Y47867D01*
X22437Y47933D01*
X22515Y47997D01*
X22594Y48057D01*
X22676Y48114D01*
X22760Y48168D01*
X22846Y48218D01*
X22934Y48265D01*
X23024Y48309D01*
X23115Y48349D01*
X23208Y48385D01*
X23302Y48418D01*
X23398Y48447D01*
X23494Y48472D01*
X23591Y48493D01*
X23690Y48511D01*
X23788Y48524D01*
X23888Y48534D01*
X23987Y48540D01*
X24087Y48542D01*
X24187Y48540D01*
X24286Y48534D01*
X24386Y48524D01*
X24484Y48511D01*
X24583Y48493D01*
X24680Y48472D01*
X24776Y48447D01*
X24872Y48418D01*
X24966Y48385D01*
X25059Y48349D01*
X25150Y48309D01*
X25240Y48265D01*
X25328Y48218D01*
X25414Y48168D01*
X25498Y48114D01*
X25580Y48057D01*
X25659Y47997D01*
X25737Y47933D01*
X25811Y47867D01*
X25883Y47798D01*
X25952Y47726D01*
X26018Y47652D01*
X26082Y47574D01*
X26142Y47495D01*
X26199Y47413D01*
X26253Y47329D01*
X26303Y47243D01*
X26350Y47155D01*
X26394Y47065D01*
X26434Y46974D01*
X26470Y46881D01*
X26503Y46787D01*
X26532Y46691D01*
X26557Y46595D01*
X26578Y46498D01*
X26596Y46399D01*
X26609Y46301D01*
X26619Y46201D01*
X26625Y46102D01*
X26627Y46002D01*
X26627Y43462D01*
M02*
