G04 EAGLE Gerber RS-274X export*
G75*
%MOMM*%
%FSLAX34Y34*%
%LPD*%
%INSoldermask Bottom*%
%IPPOS*%
%AMOC8*
5,1,8,0,0,1.08239X$1,22.5*%
G01*
%ADD10P,1.869504X8X292.500000*%
%ADD11C,1.727200*%
%ADD12C,0.959600*%


D10*
X470400Y276000D03*
X495800Y276000D03*
X470400Y250600D03*
X495800Y250600D03*
X470400Y225200D03*
X495800Y225200D03*
X470400Y199800D03*
X495800Y199800D03*
X470400Y174400D03*
X495800Y174400D03*
X470400Y149000D03*
X495800Y149000D03*
X470400Y123600D03*
X495800Y123600D03*
X470400Y98200D03*
X495800Y98200D03*
X470400Y72800D03*
X495800Y72800D03*
X470400Y47400D03*
X495800Y47400D03*
D11*
X50800Y280480D02*
X50800Y295720D01*
X76200Y295720D02*
X76200Y280480D01*
X101600Y280480D02*
X101600Y295720D01*
X127000Y295720D02*
X127000Y280480D01*
X152400Y280480D02*
X152400Y295720D01*
X177800Y295720D02*
X177800Y280480D01*
X203200Y280480D02*
X203200Y295720D01*
X228600Y295720D02*
X228600Y280480D01*
X254000Y280480D02*
X254000Y295720D01*
X279400Y295720D02*
X279400Y280480D01*
X304800Y280480D02*
X304800Y295720D01*
X330200Y295720D02*
X330200Y280480D01*
X355600Y280480D02*
X355600Y295720D01*
X381000Y295720D02*
X381000Y280480D01*
X406400Y280480D02*
X406400Y295720D01*
X50800Y45720D02*
X50800Y30480D01*
X76200Y30480D02*
X76200Y45720D01*
X101600Y45720D02*
X101600Y30480D01*
X127000Y30480D02*
X127000Y45720D01*
X152400Y45720D02*
X152400Y30480D01*
X177800Y30480D02*
X177800Y45720D01*
X203200Y45720D02*
X203200Y30480D01*
X228600Y30480D02*
X228600Y45720D01*
X254000Y45720D02*
X254000Y30480D01*
X279400Y30480D02*
X279400Y45720D01*
X304800Y45720D02*
X304800Y30480D01*
X330200Y30480D02*
X330200Y45720D01*
X355600Y45720D02*
X355600Y30480D01*
X381000Y30480D02*
X381000Y45720D01*
X406400Y45720D02*
X406400Y30480D01*
D12*
X438150Y215900D03*
X263525Y200025D03*
X314325Y174625D03*
X365125Y149225D03*
M02*
