M48
;GenerationSoftware,Autodesk,EAGLE,9.2.0*%
;CreationDate,2019-03-28T17:23:41Z*%
FMAT,2
ICI,OFF
METRIC,TZ,000.000
T2C0.350
T1C1.016
%
G90
M71
T1
X47040Y25060
X33020Y3810
X35560Y3810
X38100Y3810
X47040Y27600
X49580Y27600
X47040Y17440
X49580Y25060
X47040Y22520
X49580Y22520
X47040Y19980
X49580Y19980
X40640Y3810
X49580Y17440
X47040Y14900
X49580Y14900
X47040Y12360
X49580Y12360
X47040Y9820
X49580Y9820
X47040Y7280
X49580Y7280
X47040Y4740
X49580Y4740
X5080Y28810
X7620Y28810
X10160Y28810
X12700Y28810
X15240Y28810
X17780Y28810
X20320Y28810
X22860Y28810
X25400Y28810
X27940Y28810
X30480Y28810
X33020Y28810
X35560Y28810
X38100Y28810
X40640Y28810
X5080Y3810
X7620Y3810
X10160Y3810
X12700Y3810
X15240Y3810
X17780Y3810
X20320Y3810
X22860Y3810
X25400Y3810
X27940Y3810
X30480Y3810
T2
X26352Y20003
X31432Y17463
X36513Y14922
X43815Y21590
M30